<svg width="260" height="230" viewBox="0 0 260 230" fill="none" xmlns="http://www.w3.org/2000/svg">
<mask id="mask0_33_5" style="mask-type:luminance" maskUnits="userSpaceOnUse" x="0" y="0" width="260" height="230">
<path d="M0 0H259.833V230H0V0Z" fill="white"/>
</mask>
<g mask="url(#mask0_33_5)">
<path d="M68.7344 1.49469C60.9219 4.47386 55.7969 11.1561 53.7969 20.9218C52.8229 25.8489 53.0625 36.5416 54.3333 42.3957C55.7031 48.7395 58.8229 57.2811 62.1927 63.9686C65.2656 70.1197 70.5885 78.8072 72.8333 81.3957C73.8073 82.5676 73.8073 82.5676 72.8802 82.2239C70.9792 81.5416 54.4323 81.2968 48.4792 81.8801C23.3906 84.3228 5.42708 94.8645 1.57291 109.359C-0.13542 115.901 1.47396 123.224 5.96354 129.276C9.96875 134.594 21.974 145.526 28.7083 149.87C35.0052 153.922 36.224 154.656 36.9583 154.656C37.349 154.656 38.1771 155.094 38.7656 155.682C39.349 156.219 40.7656 156.802 41.8385 156.948C43.1094 157.146 44.0365 157.583 44.375 158.12C44.7656 158.854 45.401 159.047 47.7448 159.047C50.1354 159.047 50.5781 159.193 50.3333 159.781C50.1875 160.219 50.4271 160.854 50.9635 161.198C51.7969 161.828 51.7969 161.927 50.724 163.198C49.9896 164.125 49.6458 165.245 49.6979 166.562C49.6979 167.687 49.5 170.521 49.2604 172.958C48.4271 181.307 49.7448 194.776 52.2865 204.443C55.2135 215.568 57.2604 219.766 61.7031 223.917C65.901 227.87 68.8281 228.943 75.8073 229.234C82.3021 229.479 85.6198 228.745 91.9167 225.672C105.438 219.083 118.615 204.146 127.792 185.016L129.938 180.474L132.182 185.016C135.307 191.26 137.208 194.729 140.286 199.364C150.146 214.349 163.568 225.479 175.474 228.552C179.969 229.724 187.583 229.578 191.094 228.307C198.172 225.672 202.568 220.693 205.349 212.25C207.349 206.198 208.958 199.708 209.839 194.193C210.667 188.917 211.156 177.349 210.714 172.958C210.474 170.521 210.276 167.687 210.276 166.562C210.328 165.245 209.984 164.125 209.25 163.198C208.177 161.927 208.177 161.828 209.01 161.198C209.547 160.854 209.786 160.219 209.641 159.781C209.396 159.193 209.839 159.047 212.229 159.047C214.573 159.047 215.208 158.854 215.599 158.12C215.938 157.583 216.865 157.146 218.135 156.948C219.208 156.802 220.625 156.219 221.208 155.682C221.797 155.094 222.625 154.656 223.016 154.656C224.677 154.656 237.219 146.016 242.198 141.479C254.885 129.859 259.083 123.271 259.083 114.875C259.083 98.1353 240.099 84.7603 212.276 81.9791C206.568 81.3957 195.682 81.3436 190.411 81.8801C188.458 82.078 186.849 82.1249 186.849 82.078C186.849 81.9791 187.823 80.5624 188.995 78.8541C196.661 67.9218 202.271 55.8697 205.203 44.2499C206.911 37.4166 207.349 26.828 206.177 20.8697C204.422 11.9895 198.906 4.42177 192.365 1.83844C187.729 0.0311491 180.552 -0.0209343 173.328 1.64052C166.885 3.15615 163.615 4.17698 157.562 6.52073C152.536 8.52073 143.115 13.2551 141.75 14.5259C141.167 15.0155 140.234 15.5989 139.651 15.7447C139.068 15.9426 138.042 16.7239 137.359 17.552C136.672 18.3332 135.797 18.9686 135.354 18.9686C134.234 18.9686 132.281 21.2134 131.891 23.0207C131.693 23.8957 131.453 24.2864 131.354 23.9478C131.208 23.6561 130.62 23.3593 129.99 23.3593C129.354 23.3593 128.766 23.6561 128.62 23.9478C128.521 24.2864 128.281 23.8957 128.083 23.0207C127.693 21.2134 125.74 18.9686 124.62 18.9686C124.177 18.9686 123.302 18.3332 122.615 17.552C121.932 16.7239 120.906 15.9426 120.323 15.7447C119.74 15.5989 118.807 15.0155 118.271 14.5259C117.099 13.453 107.484 8.42698 104.12 7.10927C91.7708 2.32282 83.7656 0.421773 76.3958 0.468649C72.5885 0.468649 70.7813 0.71344 68.7344 1.49469ZM76.0521 2.27594C72.5417 3.59365 71.026 4.56761 68.6823 7.10927C61.2135 15.0624 59.75 30.828 64.8281 47.9114C68.099 58.9426 72.7344 67.9739 82.4948 82.4686L83.375 83.6874L79.1302 83.052C76.7865 82.6614 74.8333 82.3228 74.7865 82.2707C74.7344 82.2239 73.0781 79.7343 71.0729 76.8072C55.2135 53.328 49.9427 29.0728 57.4583 13.8436C61.3125 6.03636 68 1.39573 75.3229 1.44782L78.25 1.49469L76.0521 2.27594ZM192.219 3.2499C199 6.47386 203.151 12.328 205.151 21.6041C206.177 26.2395 205.932 35.9999 204.661 41.9061C202.516 51.5728 197.292 63.677 190.901 73.7291C185.531 82.177 185.333 82.3697 180.651 83.1041C177.917 83.4947 176.745 83.5416 176.943 83.1978C177.135 82.9061 178.406 81.0051 179.771 78.9999C187.823 67.3384 193.339 55.4791 196.417 43.177C198.073 36.5416 198.562 25.9478 197.391 19.9947C195.734 11.0624 190.948 4.76552 183.87 2.17698L181.724 1.34886L185.385 1.54157C188.266 1.6874 189.776 2.07802 192.219 3.2499ZM85.3281 2.56761C85.3281 2.71344 84.2031 3.15615 82.8854 3.59365C77.4687 5.40094 72.9792 11.4009 71.3698 18.9686C70.2969 24.0936 70.6354 35.5624 72.099 41.9061C74.7865 53.5728 80.349 65.9218 88.5 78.2707C92.5 84.2759 93.3333 85.8853 92.5 85.6405C91.9167 85.4947 90.0625 85.1041 88.401 84.7603C85.0833 84.177 85.474 84.5676 80.3021 76.9999C72.7812 66.0207 66.4896 51.9634 64.0937 40.9322C62.875 35.3176 62.6302 24.8749 63.5573 20.4791C65.4115 11.7916 70.6354 5.15615 77.1771 3.05719C79.0781 2.46865 85.3281 2.13011 85.3281 2.56761ZM184.995 3.98427C202.026 12.328 200.953 42.8332 182.552 72.5103C180.698 75.4374 178.161 79.2968 176.844 81.052C174.547 84.078 174.354 84.2239 171.521 84.8124C169.865 85.1509 168.01 85.5416 167.375 85.6874C166.302 85.9843 166.396 85.7395 168.448 82.8593C178.844 68.5103 186.068 52.453 188.557 38.2968C189.484 32.8801 189.484 23.2134 188.557 18.8697C186.995 11.453 182.458 5.34886 177.089 3.59365C175.771 3.15615 174.646 2.66657 174.646 2.52073C174.646 2.3749 176.354 2.32281 178.5 2.46865C181.333 2.61969 183.042 3.00511 184.995 3.98427ZM89.7188 4.32802C90.5521 4.8124 90.599 4.76553 87.7188 6.42177C78.9323 11.453 76.7396 28.2916 82.3021 47.5207C85.7187 59.2864 91.1823 70.2655 100.26 83.4947C102.266 86.4218 103.677 88.7655 103.484 88.7655C103.286 88.7655 101.484 88.2291 99.4792 87.6405C95.9167 86.5207 95.724 86.3749 93.2812 83.1041C84.0104 70.802 75.7604 53.5728 72.8802 40.4426C71.6146 34.7343 71.3698 24.2864 72.3438 19.7968C74.151 11.7916 78.5937 6.03636 84.349 4.27594C86.1094 3.78636 88.8438 3.78636 89.7188 4.32802ZM178.016 5.30198C182.604 7.59365 186.068 12.8645 187.63 19.7968C188.802 25.0676 188.359 35.4634 186.651 42.1509C183.141 56.3072 174.844 72.9009 165.422 84.8124C164.203 86.3228 163.323 86.8124 159.807 87.8853L155.609 89.1041L157.318 86.8593C165.078 76.7082 173.036 61.9218 176.552 51.1822C183.432 30.0468 181.677 11.7916 172.255 6.42177C169.375 4.76553 169.422 4.86448 170.255 4.27594C171.328 3.54677 175.719 4.13011 178.016 5.30198ZM94.1615 6.57282L95.625 7.30198L93.1875 9.98948C90.3542 13.0624 89.0833 16.1874 88.2083 21.8957C86.1094 36.4895 92.1615 57.5259 104.266 77.6353C106.464 81.1978 109.391 85.7864 110.901 87.7864C112.365 89.7916 113.391 91.5936 113.245 91.7916C113.052 91.9843 111.49 91.6457 109.729 91.0103C106.854 89.9843 106.313 89.5468 103.776 86.3228C94.9427 74.9009 86.401 58.3072 82.9844 45.7134C79.375 32.6353 79.4219 20.8697 83.1302 13.5989C84.7917 10.328 86.8906 8.03636 89.3802 6.8124C91.8177 5.59365 92.2604 5.54677 94.1615 6.57282ZM170.547 6.8124C180.453 11.5989 182.458 29.5572 175.474 50.6926C171.911 61.4322 162.885 77.9791 155.464 87.302C153.609 89.5936 152.88 90.1301 150.047 91.1561C148.24 91.7916 146.63 92.1822 146.484 92.0364C146.339 91.8853 147.557 89.8853 149.219 87.5936C159.125 73.6353 166.302 58.8957 169.719 45.4218C173.917 29.1197 172.547 15.1145 166.349 9.4999C165.276 8.52073 164.396 7.64573 164.396 7.4999C164.396 7.15615 167.031 5.83844 167.766 5.79157C168.156 5.79157 169.422 6.22907 170.547 6.8124ZM99.4792 10.0832L101.141 11.4999L100.068 12.8176C95.5781 18.578 95.1354 32.1457 98.9948 47.177C101.484 57.0364 107.974 71.8749 113.833 81.052L116.516 85.3489L115.396 87.8384L114.224 90.328L112.125 87.4478C104.021 76.5155 95.724 60.2603 92.2083 48.3489C89.8177 40.2499 89.0365 35.4634 89.0365 28.2395C88.9896 19.2603 90.5 14.2343 94.4062 10.4739C96.6042 8.3749 97.3333 8.32802 99.4792 10.0832ZM165.568 10.5259C169.573 14.5259 170.984 19.2603 170.938 28.4843C170.839 40.4426 167.812 51.2811 160.25 66.5572C156.344 74.5103 150.292 84.5155 146.828 88.7655C145.849 89.9843 145.849 89.9843 145.214 89.0103C143.359 85.9843 143.411 85.7395 145.656 82.0311C153.609 68.9478 159.615 54.453 162.203 42.1509C164.687 30.0468 163.667 17.2603 159.76 12.7186L158.635 11.453L160.443 10.0832C161.422 9.35407 162.542 8.71865 162.979 8.71865C163.422 8.71865 164.594 9.54677 165.568 10.5259ZM105.484 15.1145L106.854 16.3332L106.021 18.5311C104.948 21.4061 104.51 33.1249 105.339 38.6353C106.802 48.7916 111.099 61.8697 116.516 72.802L119.443 78.6145L118.469 81.1509C117.88 82.5155 117.396 83.7343 117.297 83.8332C116.661 84.4218 108.318 69.1457 105.094 61.4322C96.75 41.7134 95.0417 22.7239 100.802 13.9895C102.214 11.8905 101.677 11.7447 105.484 15.1145ZM160.052 15.6509C161.76 18.9687 162.495 22.8749 162.495 28.7291C162.495 39.1249 159.859 49.8124 154.052 63.2864C151.021 70.3124 143.651 83.8853 142.922 83.8853C142.724 83.8853 142.141 82.7134 141.552 81.2968L140.479 78.7082L141.896 76.0728C147.656 65.4322 153.12 49.2759 154.682 38.6353C155.464 33.1249 155.026 21.3593 153.953 18.5311L153.172 16.3332L155.464 14.2343C158.099 11.8905 158.099 11.8905 160.052 15.6509ZM112.219 16.3801C112.854 17.1614 112.807 17.2134 112.073 16.578C111.245 15.9426 111 15.552 111.391 15.552C111.49 15.552 111.88 15.9426 112.219 16.3801ZM114.172 16.3801C114.807 17.1614 114.76 17.2134 114.026 16.578C113.198 15.9426 112.953 15.552 113.344 15.552C113.443 15.552 113.833 15.9426 114.172 16.3801ZM146.828 15.7447C146.828 15.8436 146.438 16.2343 145.995 16.578C145.214 17.2134 145.167 17.1614 145.802 16.3801C146.438 15.5989 146.828 15.3541 146.828 15.7447ZM119.932 18.8697C120.76 20.1874 121.448 21.4582 121.448 21.6509C121.448 21.8957 120.812 21.1145 120.078 19.8957C118.031 16.6718 117.932 16.5259 118.177 16.5259C118.323 16.5259 119.104 17.5989 119.932 18.8697ZM140.922 18.3332C139.214 21.2134 138.526 22.1405 138.526 21.703C138.526 21.1666 141.458 16.5259 141.797 16.5259C141.896 16.5259 141.505 17.3593 140.922 18.3332ZM111.682 21.703C113.052 23.2134 113.052 23.3124 112.807 28.0468C112.271 38.5416 114.854 50.4478 121.448 68.0207L122.521 70.9478L121.349 74.1197L120.13 77.2916L117.833 72.7082C110.219 57.6249 105.828 41.8593 105.828 29.7082C105.828 24.677 106.609 19.5051 107.583 17.8957C107.781 17.5989 108.464 18.0416 109.099 18.7707C109.729 19.552 110.901 20.8697 111.682 21.703ZM118.031 19.0155C118.76 20.3853 118.271 20.1405 117.297 18.677C116.859 17.9426 116.714 17.552 117.005 17.6978C117.297 17.8957 117.786 18.4791 118.031 19.0155ZM141.703 20.2395C139.698 23.5051 139.016 24.2864 140.234 21.8957C141.167 20.0884 142.875 17.5051 143.167 17.5051C143.26 17.5051 142.578 18.7239 141.703 20.2395ZM153.365 21.1666C154.49 25.2655 154.391 34.1457 153.172 40.7343C151.411 50.4478 147.266 62.6041 142.141 72.7082L139.844 77.2916L138.677 74.1197C138.042 72.4114 137.599 70.6561 137.75 70.2186C137.844 69.828 139.068 66.4582 140.432 62.7499C145.214 49.8645 147.656 37.3697 147.167 28.0936C146.922 23.4114 146.922 23.2655 148.24 21.7499C148.974 20.8697 150.094 19.6041 150.729 18.8228C151.365 18.0884 152.047 17.6509 152.245 17.8436C152.49 18.0884 152.974 19.552 153.365 21.1666ZM122.177 18.9686C122.667 19.5051 122.859 19.9426 122.615 19.9426C122.375 19.9426 121.885 19.5051 121.542 18.9686C121.203 18.4322 121.005 17.9895 121.104 17.9895C121.203 17.9895 121.688 18.4322 122.177 18.9686ZM138.432 18.9686C138.089 19.4582 137.75 19.7968 137.599 19.6978C137.406 19.5051 138.479 17.9895 138.823 17.9895C138.917 17.9895 138.771 18.4322 138.432 18.9686ZM119.495 21.4061C119.786 21.9478 119.885 22.3853 119.786 22.3853C119.641 22.3853 119.297 21.9478 119.005 21.4061C118.714 20.8697 118.615 20.4322 118.714 20.4322C118.859 20.4322 119.198 20.8697 119.495 21.4061ZM127.255 24.3853C127.938 26.4374 128.083 27.6561 127.792 28.3905C127.401 29.4114 127.349 29.4114 127.302 28.4843C127.302 27.9478 126.719 25.9478 126.083 24.0936C124.667 20.0884 124.667 20.1405 125.547 20.8697C125.938 21.2134 126.719 22.7759 127.255 24.3853ZM133.891 24.2864C133.208 26.2395 132.672 28.1926 132.625 28.6301C132.625 29.2655 132.526 29.2655 132.234 28.4843C131.792 27.4114 132.818 23.3124 133.99 21.5051C135.161 19.6041 135.161 20.5311 133.891 24.2864ZM124.521 23.3124C125.448 25.5572 126.812 30.7811 126.766 31.7082C126.766 32.0989 126.328 31.0728 125.839 29.4634C125.349 27.8489 124.521 25.3645 123.932 23.9478C123.396 22.578 123.104 21.4061 123.349 21.4061C123.594 21.4061 124.13 22.2395 124.521 23.3124ZM135.99 23.9478C135.453 25.3645 134.573 27.8489 134.135 29.4634C133.016 33.0728 132.865 32.1457 133.943 28.1457C134.87 24.4322 136.089 21.4061 136.578 21.4061C136.771 21.4061 136.526 22.578 135.99 23.9478ZM123.885 27.2186C123.839 27.8489 122.469 25.0207 122.469 24.3384C122.469 23.9478 122.766 24.3384 123.156 25.2655C123.547 26.1405 123.885 27.0207 123.885 27.2186ZM136.818 26.5311C136.333 27.7551 135.844 28.6822 135.745 28.5832C135.651 28.4843 135.99 27.3645 136.432 26.1405C136.87 24.9218 137.359 23.9947 137.453 24.0936C137.552 24.1926 137.26 25.2655 136.818 26.5311ZM130.328 30.3384L130.036 34.3436L129.646 30.6822C129.448 28.6822 129.401 26.3384 129.599 25.5572C130.182 22.677 130.719 26.0468 130.328 30.3384ZM146.141 32.6353C145.656 41.9061 142.969 53.0832 138.38 65.0936L136.87 68.9947L135.5 64.6041L134.182 60.2134L135.354 56.3072C136.969 51.0364 138.38 44.1041 139.016 38.2968C139.552 33.5155 139.604 33.4634 142.578 29.1666C145.312 25.3124 145.656 25.0207 146.047 25.9478C146.24 26.5311 146.286 29.5572 146.141 32.6353ZM118.906 31.3645C120.13 33.3645 120.516 34.7811 120.958 38.4895C121.641 44.2499 123.005 50.8905 124.568 56.2551L125.74 60.3593L124.422 64.6509L123.057 68.9947L121.495 64.9478C116.661 52.3541 113.635 38.9322 113.635 29.9009C113.635 25.2134 113.979 24.7759 115.88 27.0207C116.714 28.0468 118.125 29.9999 118.906 31.3645ZM127.156 34.1978C127.01 34.5364 126.911 34.2916 126.911 33.6093C126.911 32.927 127.01 32.6822 127.156 32.9739C127.255 33.3176 127.255 33.9009 127.156 34.1978ZM133.016 34.1978C132.865 34.5364 132.771 34.2916 132.771 33.6093C132.771 32.927 132.865 32.6822 133.016 32.9739C133.109 33.3176 133.109 33.9009 133.016 34.1978ZM126.812 46.2499C127.349 47.9582 127.792 50.5936 127.74 52.1093C127.693 54.8905 126.719 58.552 126.229 57.7239C125.302 56.2551 121.932 40.1978 121.932 37.5155C121.932 35.7603 125.547 42.203 126.812 46.2499ZM137.307 42.7864C136.432 48.0572 134.234 57.0364 133.646 57.6718C133.161 58.2603 132.182 54.1614 132.182 51.427C132.182 48.6457 133.646 44.1509 135.99 39.8072C138.135 35.8072 138.432 36.3905 137.307 42.7864ZM125.693 71.2916C125.547 71.6822 125.401 71.5364 125.401 70.9999C125.349 70.4634 125.495 70.1666 125.641 70.3645C125.792 70.5103 125.839 70.9478 125.693 71.2916ZM130.083 78.1249C129.99 79.2968 129.891 78.3697 129.891 76.0728C129.891 73.7811 129.99 72.8541 130.083 73.9739C130.182 75.1457 130.182 76.9999 130.083 78.1249ZM123.25 74.2186C123.104 74.6093 122.958 74.4634 122.958 73.927C122.911 73.3905 123.057 73.0989 123.203 73.2916C123.349 73.4374 123.396 73.8801 123.25 74.2186ZM136.917 74.2186C136.771 74.6093 136.625 74.4634 136.625 73.927C136.578 73.3905 136.724 73.0989 136.87 73.2916C137.016 73.4374 137.063 73.8801 136.917 74.2186ZM126.667 75.1978C126.521 75.5884 126.375 75.4374 126.375 74.9009C126.328 74.3645 126.474 74.0728 126.62 74.2655C126.766 74.4166 126.813 74.8541 126.667 75.1978ZM133.5 75.1978C133.354 75.5884 133.208 75.4374 133.208 74.9009C133.161 74.3645 133.307 74.0728 133.453 74.2655C133.599 74.4166 133.646 74.8541 133.5 75.1978ZM128.13 78.6145C127.984 78.9999 127.839 78.8541 127.839 78.3176C127.792 77.7811 127.938 77.4895 128.083 77.6822C128.229 77.8332 128.281 78.2707 128.13 78.6145ZM119.979 82.9582C119.151 86.9582 119.052 87.203 118.422 86.177C118.078 85.4947 118.224 84.6145 119.104 82.6614C119.688 81.2499 120.276 80.1249 120.37 80.1718C120.422 80.2707 120.276 81.4895 119.979 82.9582ZM141.75 85.6874C141.26 86.9582 140.578 86.2759 140.286 84.2239C140.089 83.1041 139.844 81.6405 139.698 80.953C139.604 80.2707 140.042 80.953 140.724 82.3697C141.406 83.8332 141.849 85.3489 141.75 85.6874ZM72.8802 83.1978C73.9531 83.4426 75.0312 84.4218 76.9323 86.8593L79.5208 90.2759L75.4688 89.8853C68.6354 89.2499 53.8437 89.4947 47.7448 90.3749C25.7812 93.5468 10.0625 103.016 6.16146 115.318C5.42708 117.562 5.23437 119.271 5.38021 122.297C5.57291 125.906 5.52604 126.198 4.89062 125.271C3.67187 123.516 2.35416 119.562 2.0625 116.635C0.984372 106.63 9.23437 95.6926 22.4635 89.5468C29.099 86.4686 38.8594 83.9322 47.7448 82.9582C51.8958 82.4686 70.099 82.6614 72.8802 83.1978ZM126.812 85.4426C126.766 87.7864 126.667 88.3228 126.276 87.6405C125.839 86.9114 126.13 82.4166 126.62 82.4166C126.719 82.4166 126.812 83.7864 126.812 85.4426ZM133.745 87.4947C133.354 88.2759 133.208 87.8384 133.255 85.3489V82.177L133.745 84.3228C134.036 85.7395 134.036 86.8124 133.745 87.4947ZM216.865 83.5416C231.802 85.9843 242.781 90.8645 250.302 98.4791C257.766 105.943 259.771 114.094 256.354 122.635C255.667 124.396 254.938 125.958 254.74 126.104C254.547 126.198 254.495 124.489 254.594 122.297C255.036 113.703 250.448 106.286 240.927 100.036C228.922 92.1822 206.958 87.9322 187.141 89.6926C183.677 89.9843 180.797 90.177 180.698 90.0832C180.599 89.9843 184.849 84.3228 185.63 83.4947C185.677 83.3957 187.583 83.1509 189.828 82.9061C195.536 82.3228 211.594 82.7134 216.865 83.5416ZM121.932 85.203C121.448 87.6405 120.958 88.7655 120.37 88.7655C119.932 88.7655 120.031 88.2291 121.057 84.7603C121.74 82.4166 122.422 82.8072 121.932 85.203ZM139.943 88.1301C139.995 88.4739 139.797 88.7655 139.552 88.7655C138.771 88.7655 137.307 83.8332 137.896 83.1978C138.234 82.8593 139.896 86.8124 139.943 88.1301ZM81.3229 84.4218C84.5469 85.0051 84.5938 85.0051 87.1354 88.2291C88.5 89.9843 89.5729 91.4999 89.474 91.5936C89.4271 91.6926 87.6198 91.4999 85.474 91.1561L81.6667 90.5676L79.1302 87.4947C77.7135 85.8332 76.5417 84.3228 76.5417 84.177C76.5417 83.7343 77.6667 83.8332 81.3229 84.4218ZM128.818 85.203C128.427 85.9322 128.328 85.9322 128.281 85.2968C128.281 84.4686 128.766 83.7343 129.156 84.078C129.255 84.2239 129.109 84.7134 128.818 85.203ZM131.693 85.2499C131.693 85.9843 131.599 85.9843 131.208 85.3489C130.573 84.3697 130.573 83.7343 131.208 84.1249C131.5 84.2759 131.693 84.8124 131.693 85.2499ZM181.87 86.3749C180.75 87.7395 179.432 89.2499 179.042 89.7395C178.552 90.2759 176.99 90.8124 174.5 91.203C172.401 91.4999 170.594 91.6926 170.5 91.5936C170.401 91.4999 171.474 89.9843 172.891 88.2759C175.182 85.3489 175.625 85.0572 178.062 84.5155C179.526 84.2239 181.479 83.9322 182.359 83.9322L184.016 83.8853L181.87 86.3749ZM91.2812 86.5676C94.599 87.302 95.1875 87.5936 96.3594 89.1561C97.0885 90.177 98.3594 91.6926 99.1406 92.5207C99.9687 93.4009 100.458 94.1353 100.167 94.1353C98.9948 94.0832 92.0156 92.2291 91.6719 91.8853C89.5729 89.5936 86.2552 85.2499 86.8385 85.4426C87.2292 85.5936 89.2344 86.078 91.2812 86.5676ZM172.448 86.9114C168.156 92.0832 167.911 92.2291 163.859 93.2082C161.714 93.6926 159.807 94.1353 159.714 94.1353C159.563 94.1353 160.688 92.6666 162.25 90.8124C164.984 87.6405 165.13 87.4947 168.984 86.4686C171.182 85.9322 173.135 85.3957 173.328 85.3957C173.573 85.3489 173.182 86.078 172.448 86.9114ZM123.839 89.9843C123.495 91.4478 123.057 92.5207 122.766 92.328C122.323 92.0832 122.615 88.0832 123.25 86.5207C123.495 85.7864 123.594 85.7864 123.984 86.5207C124.276 87.0051 124.229 88.3228 123.839 89.9843ZM137.359 89.5936C137.797 92.9634 136.87 93.302 136.135 90.0311C135.552 87.3957 135.844 85.0572 136.625 86.4218C136.818 86.8124 137.161 88.2291 137.359 89.5936ZM117.979 87.6926C118.323 88.3228 118.177 89.1561 117.49 90.7186C116.615 92.6197 116.469 92.7655 115.781 92.0832C115.099 91.4478 115.151 91.1093 116.125 89.1041C116.76 87.8384 117.297 86.8124 117.396 86.8124C117.443 86.8124 117.734 87.203 117.979 87.6926ZM144.193 92.2759L143.458 93.302L142.922 92.0364C142.677 91.302 142.188 90.1301 141.943 89.4478C141.552 88.5207 141.604 87.9843 142.042 87.4478C142.531 86.8593 142.823 87.1041 143.75 88.9582C144.823 91.0103 144.823 91.3489 144.193 92.2759ZM129.255 89.8384L129.208 92.427L128.474 91.0103C127.839 89.8384 127.792 89.4009 128.328 88.4739C128.667 87.8384 129.01 87.302 129.109 87.302C129.208 87.302 129.255 88.4739 129.255 89.8384ZM131.547 91.0572C130.766 91.8384 130.719 91.7395 130.766 89.4947V87.0572L131.599 88.6666C132.328 90.1301 132.328 90.328 131.547 91.0572ZM101.776 89.4947C105.385 90.6197 105.776 90.9114 108.12 93.7447C109.49 95.453 110.563 96.8645 110.464 96.9634C110.417 97.0624 108.656 96.6197 106.557 95.9895C103.047 94.9634 102.604 94.6718 100.167 91.8853C97.724 89.1561 97.1875 88.2759 97.724 88.2759C97.8698 88.2759 99.6771 88.8124 101.776 89.4947ZM162.443 88.5676C162.443 88.7134 161.224 90.2291 159.76 91.8853C156.927 95.0624 157.271 94.9166 150.047 96.9634C149.365 97.1614 149.901 96.2343 151.755 93.9843C154.198 90.9582 154.635 90.6197 158.052 89.5468C162.052 88.2291 162.443 88.1301 162.443 88.5676ZM134.479 90.328C134.333 90.6666 134.234 90.4218 134.234 89.7395C134.234 89.0572 134.333 88.8124 134.479 89.1041C134.573 89.4478 134.573 90.0311 134.479 90.328ZM125.693 90.328C125.547 90.7186 125.401 90.5676 125.401 90.0311C125.349 89.4947 125.495 89.203 125.641 89.4009C125.792 89.5468 125.839 89.9843 125.693 90.328ZM73.3229 90.7655L80.2031 91.2551L87.0365 98.0884L83.1302 97.6978C76.0052 96.9634 56.3333 97.3072 50.9167 98.2343C35.5417 100.818 23.974 105.797 16.75 112.922C11.4323 118.099 9.08854 124.052 10.1146 129.521C10.3594 130.885 10.5052 132.057 10.4062 132.104C10.0156 132.495 7.23437 126.932 6.69791 124.734C4.45312 115.411 11.625 104.823 24.5625 98.3801C37.4948 91.9374 54.3802 89.302 73.3229 90.7655ZM205.885 90.7655C217.063 91.7916 227.703 94.5259 235.411 98.427C250.203 105.849 256.891 117.708 252.104 127.958C251.422 129.375 250.542 130.932 250.104 131.474C249.276 132.448 249.276 132.401 249.615 131.229C250.302 128.885 249.958 123.713 248.885 120.979C246.005 113.364 235.854 105.651 223.698 101.745C212.083 98.0364 202.125 96.8176 187.339 97.2551C181.578 97.453 175.964 97.6978 174.891 97.8436L172.938 98.1822L175.865 95.0624C177.479 93.3541 178.99 91.7916 179.281 91.5936C180.943 90.5207 197.682 89.9843 205.885 90.7655ZM88.0104 92.6666C91.3802 93.2082 91.4792 93.302 94.4531 96.5259L97.4792 99.8436L93.2344 99.0624C90.8906 98.6249 88.7448 98.1353 88.4531 97.9426C88.1094 97.6978 86.6927 96.1822 85.276 94.5728C83.5208 92.5207 82.9844 91.6457 83.6198 91.8384C84.1562 91.9843 86.1563 92.3749 88.0104 92.6666ZM110.562 92.5207C111.589 93.0103 112.516 93.4009 112.609 93.4999C112.661 93.5468 112.464 94.0364 112.073 94.5728L111.344 95.5989L110.417 94.4739C108.854 92.7186 108.12 91.6926 108.411 91.6926C108.609 91.6926 109.536 92.0832 110.562 92.5207ZM142.385 93.8905C142.385 94.1353 142.188 94.0364 141.943 93.6457C141.703 93.2551 141.505 92.5728 141.505 92.1822C141.505 91.4009 142.333 92.9634 142.385 93.8905ZM151.708 92.0364C151.708 92.2759 151.021 93.1561 150.193 94.0364C148.776 95.5989 148.682 95.6457 148.047 94.7655C147.656 94.2811 147.312 93.7447 147.312 93.5468C147.312 93.302 149.365 92.427 151.609 91.7395C151.656 91.6926 151.708 91.8384 151.708 92.0364ZM176.208 93.0103C175.672 93.7916 174.307 95.2551 173.182 96.328C171.375 98.0884 170.792 98.328 166.839 99.0624L162.443 99.7968L165.521 96.5728C168.495 93.4009 168.594 93.3541 172.448 92.5728C174.599 92.1301 176.552 91.7916 176.745 91.7395C176.99 91.6926 176.698 92.2759 176.208 93.0103ZM118.078 93.4999C117.49 94.4739 117.396 94.1822 117.833 92.9114C118.031 92.4739 118.271 92.2291 118.37 92.3749C118.516 92.4739 118.37 93.0103 118.078 93.4999ZM125.839 94.3749C125.547 95.8436 125.448 95.9895 125.401 95.0103C125.349 93.7916 125.792 91.9843 126.083 92.2759C126.182 92.3749 126.031 93.302 125.839 94.3749ZM134.625 94.5728C134.625 96.1353 134.333 95.7447 133.943 93.6457C133.745 92.427 133.792 92.1301 134.135 92.6666C134.38 93.0572 134.625 93.9374 134.625 94.5728ZM121.25 94.9634C120.76 96.2343 120.37 95.3541 120.812 93.8384C121.057 92.8176 121.203 92.6666 121.349 93.302C121.448 93.7916 121.396 94.5259 121.25 94.9634ZM139.458 95.1093C139.505 95.7447 139.458 95.7447 139.016 95.1093C138.771 94.7186 138.578 93.9374 138.578 93.4009V92.427L139.016 93.4009C139.26 93.9374 139.458 94.7186 139.458 95.1093ZM99.2396 95.1093C101.141 95.5989 102.312 96.3801 104.703 98.6718C106.365 100.333 107.682 101.745 107.536 101.844C107.438 101.943 105.63 101.651 103.531 101.161C100.115 100.427 99.4323 100.036 97.1406 97.8436C95.6771 96.4739 94.3073 95.0103 94.1146 94.5728C93.625 93.6926 93.4271 93.6457 99.2396 95.1093ZM128.62 95.2082C128.474 95.5468 128.375 95.302 128.375 94.6197C128.375 93.9374 128.474 93.6926 128.62 93.9843C128.719 94.328 128.719 94.9166 128.62 95.2082ZM131.547 95.2082C131.401 95.5468 131.307 95.302 131.307 94.6197C131.307 93.9374 131.401 93.6926 131.547 93.9843C131.646 94.328 131.646 94.9166 131.547 95.2082ZM146.974 95.4009C147.703 96.8645 147.703 97.0103 146.828 97.7916C145.948 98.6249 145.849 98.5728 145.021 96.8176C144.193 95.0624 144.193 95.0103 145.068 94.328C145.604 93.9374 146.047 93.6926 146.094 93.7916C146.193 93.8384 146.583 94.5728 146.974 95.4009ZM164.495 95.9374C161.422 99.6509 160.641 100.187 156.927 101.062C154.979 101.505 153.12 101.896 152.781 101.943C152.437 101.943 153.51 100.578 155.125 98.8697C157.807 96.1353 158.443 95.7447 161.859 94.7655C163.906 94.1822 165.813 93.6926 166.005 93.6926C166.25 93.6457 165.568 94.6718 164.495 95.9374ZM115.344 94.6197C115.49 94.8645 115.297 95.8905 114.854 96.8645C114.125 98.6249 114.073 98.6249 113.146 97.7916C112.271 97.0103 112.271 96.8176 112.953 95.5468C113.635 94.1353 114.76 93.6926 115.344 94.6197ZM127.302 95.8905C127.302 96.8176 127.109 97.4999 126.911 97.3541C126.521 97.1093 126.719 94.1353 127.109 94.1353C127.203 94.1353 127.302 94.9166 127.302 95.8905ZM133.307 95.9374C133.5 96.8645 133.401 97.552 133.161 97.552C132.865 97.552 132.672 96.7186 132.672 95.7447C132.672 93.6457 132.917 93.7447 133.307 95.9374ZM130.229 99.6978C129.401 100.526 129.156 99.6509 129.547 97.453L129.891 95.3541L130.328 97.2551C130.573 98.4791 130.573 99.3541 130.229 99.6978ZM124.375 96.5728C124.375 96.8176 124.276 97.0624 124.177 97.0624C124.031 97.0624 123.786 96.8176 123.641 96.5728C123.495 96.2811 123.594 96.0832 123.839 96.0832C124.13 96.0832 124.375 96.2811 124.375 96.5728ZM136.578 96.5728C136.578 96.8176 136.38 97.0624 136.089 97.0624C135.844 97.0624 135.599 96.8176 135.599 96.5728C135.599 96.2811 135.844 96.0832 136.089 96.0832C136.38 96.0832 136.578 96.2811 136.578 96.5728ZM109.635 98.2811C109.781 98.427 109.583 99.0624 109.245 99.7447L108.562 100.969L106.703 99.1614C105.682 98.1822 104.849 97.2082 104.849 97.0103C104.849 96.6718 109.193 97.8436 109.635 98.2811ZM117.833 98.2811C117.641 98.9634 117.198 99.4999 116.807 99.4999C116.125 99.4999 116.125 99.3072 116.807 97.9895C117.734 96.2811 118.271 96.427 117.833 98.2811ZM120.958 97.5989C120.958 97.8905 120.76 97.9426 120.469 97.7916C120.224 97.6457 119.979 97.2551 119.979 97.0103C119.979 96.7186 120.224 96.6718 120.469 96.8176C120.76 96.9634 120.958 97.3541 120.958 97.5989ZM139.995 97.0103C139.995 97.3072 139.797 97.6457 139.505 97.7916C139.26 97.9426 139.016 97.7447 139.016 97.3541C139.016 96.9166 139.26 96.5728 139.505 96.5728C139.797 96.5728 139.995 96.7707 139.995 97.0103ZM143.167 98.0364C143.802 99.2603 143.802 99.4999 143.214 99.4999C142.531 99.4999 141.943 98.4791 141.943 97.2551C141.943 96.1822 142.333 96.427 143.167 98.0364ZM153.661 98.7707C151.365 101.062 151.365 101.114 150.536 99.4061C150 98.328 150.094 98.2343 152.438 97.453C155.953 96.2811 156.052 96.328 153.661 98.7707ZM81.6198 98.6249L87.9635 99.1614L90.8906 101.844C92.5521 103.307 94.1615 104.771 94.5052 105.114C94.9896 105.552 94.4531 105.604 92.0625 105.213C87.3281 104.432 63.4635 104.479 58.2396 105.26C40.8125 107.896 27.9792 113.167 20.6094 120.781C16.9479 124.588 15.4323 127.76 15.1406 132.057C14.9948 134.01 14.75 135.62 14.5573 135.62C13.0417 135.62 11.0885 130.984 11.0885 127.422C11.0417 113.557 30.5625 101.208 56.5312 98.5728C62.776 97.9426 74.5417 97.9426 81.6198 98.6249ZM124.276 99.8905C124.422 101.552 123.885 101.896 122.911 100.724C122.224 99.8905 122.714 97.8905 123.547 98.1822C123.885 98.2811 124.177 99.0624 124.276 99.8905ZM137.307 99.0155C137.651 100.036 136.87 101.453 136.042 101.453C135.552 101.453 135.453 98.8697 135.943 98.3801C136.526 97.7916 137.016 98.0364 137.307 99.0155ZM209.74 99.4999C233.411 103.698 248.932 114.729 248.885 127.422C248.885 130.984 246.932 135.62 245.417 135.62C245.224 135.62 244.979 134.01 244.833 132.057C244.542 127.667 242.932 124.396 239.125 120.588C231.703 113.12 218.089 107.557 201.734 105.26C196.755 104.578 176.698 104.432 170.01 105.016L165.615 105.406L168.547 102.479C170.401 100.578 171.964 99.4061 172.938 99.2603C181.234 97.7447 200.563 97.8436 209.74 99.4999ZM113.146 100.135C113.146 100.917 112.026 103.406 111.635 103.406C111.49 103.406 110.953 103.114 110.417 102.724C109.49 102.042 109.49 101.989 110.417 100.281C111.198 98.8176 111.49 98.6249 112.219 99.0624C112.755 99.3072 113.146 99.7968 113.146 100.135ZM119.641 99.7447C119.297 100.771 119.005 100.672 119.005 99.453C119.005 98.9166 119.198 98.5728 119.495 98.7707C119.74 98.9166 119.833 99.3541 119.641 99.7447ZM140.969 99.5989C140.969 100.479 140.87 100.578 140.531 99.9895C140.234 99.5989 140.188 99.1093 140.286 98.9166C140.724 98.2343 140.969 98.4791 140.969 99.5989ZM149.755 100.526C150.339 101.896 150.339 102.135 149.51 102.724C148.24 103.651 148.094 103.604 147.219 101.698C146.484 100.036 146.484 99.9426 147.458 99.2603C148.682 98.427 148.974 98.5728 149.755 100.526ZM101.875 104.088C103.484 105.703 104.755 107.068 104.703 107.114C104.458 107.359 97.724 105.995 96.9948 105.552C96.5521 105.312 94.8958 103.896 93.2812 102.38L90.3542 99.6509L94.651 100.427C98.8958 101.208 98.9948 101.26 101.875 104.088ZM169.766 99.6978C169.766 99.7447 168.255 101.208 166.396 102.87C163.177 105.703 162.786 105.896 159.172 106.531C157.078 106.87 155.318 107.114 155.219 107.068C155.125 107.021 156.443 105.651 158.052 104.088C160.88 101.359 161.271 101.161 165.031 100.38C169.719 99.453 169.766 99.453 169.766 99.6978ZM127.646 100.771C127.74 101.062 127.255 101.552 126.573 101.844C125.203 102.479 125.104 102.333 125.938 100.969C126.573 99.9895 127.349 99.8905 127.646 100.771ZM134.625 101.989C134.625 102.234 134.089 102.135 133.401 101.844C132.135 101.307 131.938 100.917 132.526 100.333C132.865 99.9426 134.625 101.359 134.625 101.989ZM117.052 101.26C117.052 101.651 116.859 101.844 116.562 101.698C116.323 101.552 116.078 101.208 116.078 100.917C116.078 100.672 116.323 100.479 116.562 100.479C116.859 100.479 117.052 100.818 117.052 101.26ZM143.604 101.208C143.411 101.599 143.214 101.943 143.115 101.943C143.021 101.943 142.922 101.599 142.922 101.208C142.922 100.818 143.115 100.479 143.411 100.479C143.651 100.479 143.75 100.818 143.604 101.208ZM116.078 103.453C116.078 104.479 115.88 104.531 114.271 104.088C113.245 103.797 113.245 103.75 113.979 102.625C114.563 101.698 114.906 101.552 115.396 101.989C115.781 102.286 116.078 102.969 116.078 103.453ZM145.948 103.995C144.531 104.578 143.896 104.432 143.896 103.505C143.896 103.016 144.193 102.333 144.484 102.042C144.969 101.552 145.266 101.651 145.948 102.526C146.729 103.604 146.729 103.651 145.948 103.995ZM105.385 102.771C106.901 103.062 107.146 103.75 106.219 104.969C105.63 105.703 105.339 105.552 103.385 103.797C101.286 101.943 101.286 101.844 102.604 102.135C103.339 102.333 104.604 102.625 105.385 102.771ZM120.276 102.724C120.13 103.161 119.979 103.698 119.979 103.943C119.979 104.187 119.786 104.385 119.495 104.385C118.958 104.385 118.807 102.771 119.349 102.286C119.932 101.651 120.568 101.943 120.276 102.724ZM140.969 102.87C141.313 103.552 141.313 103.943 140.922 104.187C140.333 104.531 139.505 103.604 139.505 102.526C139.505 101.599 140.385 101.844 140.969 102.87ZM156.344 103.896C154.589 105.703 154.344 105.797 153.807 105.016C152.781 103.651 153.073 103.062 155.026 102.526C158.151 101.698 158.297 101.896 156.344 103.896ZM127.401 103.505C127.057 103.844 126.812 103.896 126.812 103.604C126.812 103.307 126.958 102.917 127.156 102.771C127.302 102.578 127.594 102.526 127.74 102.677C127.839 102.823 127.693 103.213 127.401 103.505ZM138.042 103.406C138.042 103.651 137.943 103.896 137.844 103.896C137.698 103.896 137.453 103.651 137.307 103.406C137.161 103.114 137.26 102.917 137.505 102.917C137.797 102.917 138.042 103.114 138.042 103.406ZM110.51 104.432C110.854 105.016 109.193 107.802 108.464 107.802C107.146 107.802 106.755 106.479 107.63 105.016C108.411 103.604 109.828 103.307 110.51 104.432ZM130.719 104.432C130.719 104.677 130.375 104.87 129.99 104.87C129.255 104.87 129.01 104.286 129.547 103.75C129.938 103.359 130.719 103.797 130.719 104.432ZM153.172 106.677C153.172 107.021 152.729 107.505 152.245 107.802C151.464 108.187 151.12 108.042 150.292 106.87C148.974 105.068 149.021 104.432 150.391 103.943C151.266 103.604 151.609 103.797 152.292 104.823C152.781 105.505 153.172 106.333 153.172 106.677ZM115.052 105.651C115.151 105.75 115.151 105.995 114.953 106.141C114.807 106.286 114.172 106.042 113.536 105.604L112.417 104.771L113.635 105.114C114.318 105.312 114.953 105.552 115.052 105.651ZM123.396 105.849C123.396 106.385 123.057 106.823 122.667 106.823C121.786 106.823 121.74 106.239 122.521 105.458C123.302 104.677 123.396 104.724 123.396 105.849ZM137.943 106.63C137.453 107.114 136.578 106.333 136.578 105.458C136.578 104.724 136.625 104.724 137.406 105.505C137.844 105.943 138.089 106.432 137.943 106.63ZM146.583 105.849C146.094 106.385 145.51 106.677 145.312 106.531C144.578 106.094 144.823 105.458 145.75 105.213C147.365 104.771 147.458 104.87 146.583 105.849ZM92.599 106.333C94.599 106.63 96.6042 107.167 97.0885 107.458C98.9948 108.823 101.922 111.755 101.729 112.146C101.578 112.338 99.9688 112.292 98.1615 112.047C93.1354 111.312 70.7344 111.364 65.5573 112.094C45.9375 114.875 32.4687 120.344 24.6562 128.739C22.0729 131.521 20.4115 134.838 20.4115 137.375C20.4115 138.307 20.3125 139.036 20.2187 139.036C19.3385 139.036 16.5573 136.838 16.3125 135.963C14.3594 128.687 20.9479 119.755 32.4167 114C39.8854 110.239 51.5521 107.068 61.9479 105.896C67.1198 105.312 87.7656 105.604 92.599 106.333ZM197.146 105.849C212.422 107.411 226.24 111.995 234.729 118.391C241.609 123.614 245.125 130.448 243.661 135.963C243.417 136.838 240.635 139.036 239.755 139.036C239.661 139.036 239.562 138.208 239.562 137.182C239.562 134.302 237.464 130.693 233.755 127.224C221.505 115.656 195.536 109.557 167.323 111.656C162.885 111.995 159.078 112.292 158.833 112.338C158.589 112.385 158.344 112.193 158.245 111.901C158.099 111.604 159.37 110.338 161.031 109.068L164.005 106.776L169.911 106.141C177.281 105.312 190.458 105.213 197.146 105.849ZM113.443 108.239C113.099 108.729 110.708 109.021 110.708 108.531C110.708 108.432 110.953 107.75 111.292 107.068C111.828 105.797 111.88 105.797 112.807 106.776C113.344 107.26 113.589 107.948 113.443 108.239ZM143.896 106.823C144.339 107.604 144.286 107.802 143.651 107.802C143.26 107.802 142.922 107.359 142.922 106.823C142.922 106.286 143.021 105.849 143.167 105.849C143.26 105.849 143.604 106.286 143.896 106.823ZM149.266 108.385C149.266 108.969 146.922 108.823 146.583 108.239C146.385 107.995 146.63 107.312 147.12 106.776C147.995 105.797 147.995 105.797 148.63 106.922C148.974 107.557 149.219 108.187 149.266 108.385ZM117.052 107.068C117.052 107.458 116.714 107.802 116.323 107.802C115.88 107.802 115.734 107.505 115.88 107.068C116.078 106.677 116.37 106.333 116.615 106.333C116.859 106.333 117.052 106.677 117.052 107.068ZM130.62 107.167C130.427 108.239 129.547 108.141 129.354 107.114C129.255 106.63 129.5 106.333 129.99 106.333C130.474 106.333 130.719 106.677 130.62 107.167ZM103.583 108.286C103.776 108.531 103.677 109.12 103.339 109.656C102.656 110.583 102.604 110.583 100.703 108.969L98.75 107.312L100.948 107.604C102.167 107.802 103.339 108.094 103.583 108.286ZM140.969 110.385C140.969 110.583 140.531 110.484 139.995 110.141C139.458 109.802 139.016 108.969 139.016 108.286V107.068L139.995 108.531C140.531 109.312 140.969 110.141 140.969 110.385ZM159.224 108.969C157.37 110.531 157.318 110.583 156.688 109.656C155.854 108.531 156.052 108.286 158.151 107.802C161.031 107.114 161.177 107.26 159.224 108.969ZM120.177 110.094C118.906 111.021 118.76 110.484 119.786 108.922C120.568 107.703 120.714 107.651 120.859 108.484C120.958 109.021 120.667 109.703 120.177 110.094ZM128.474 108.578C128.62 108.969 128.573 109.167 128.281 109.021C127.984 108.875 127.792 108.531 127.792 108.239C127.792 107.557 128.13 107.703 128.474 108.578ZM107.339 109.411C107.339 109.995 105.63 112.682 105.292 112.682C105.094 112.682 104.703 112.338 104.365 111.948C103.484 110.875 105.146 108.239 106.411 108.729C106.948 108.922 107.339 109.213 107.339 109.411ZM155.417 109.995C156.927 112.338 154.828 113.073 153.219 110.776C151.901 108.969 151.953 108.776 153.417 108.776C154.146 108.776 154.927 109.213 155.417 109.995ZM126.182 110.338C126.031 110.729 125.885 110.583 125.885 110.047C125.839 109.505 125.984 109.213 126.13 109.411C126.276 109.557 126.328 109.995 126.182 110.338ZM133.99 110.338C133.844 110.729 133.698 110.583 133.698 110.047C133.646 109.505 133.792 109.213 133.943 109.411C134.089 109.557 134.135 109.995 133.99 110.338ZM111.927 110.239C111.781 110.484 111.344 110.583 110.953 110.385C109.927 110.047 110.026 109.75 111.245 109.75C111.781 109.75 112.125 109.948 111.927 110.239ZM149.755 109.948C149.755 110.385 148.292 110.63 148.047 110.239C147.849 109.948 148.193 109.75 148.729 109.75C149.318 109.75 149.755 109.849 149.755 109.948ZM124.766 111.364C124.865 111.948 124.62 112.193 123.932 112.193C122.813 112.193 122.766 112.146 123.203 110.974C123.594 110.047 124.568 110.239 124.766 111.364ZM110.708 111.458C110.708 111.557 110.026 112.146 109.146 112.729L107.63 113.854L108.51 112.338C109.047 111.458 109.682 110.922 110.073 111.068C110.417 111.213 110.708 111.411 110.708 111.458ZM115.589 111.167C115.589 111.703 114.172 112.875 113.88 112.583C113.391 112.146 114.224 110.729 114.906 110.729C115.297 110.729 115.589 110.922 115.589 111.167ZM137.062 111.213C137.062 111.802 135.698 112.437 135.307 112.047C134.87 111.604 135.599 110.729 136.38 110.729C136.771 110.729 137.062 110.974 137.062 111.213ZM146.047 111.51C146.531 112.828 145.901 112.974 144.776 111.802L143.703 110.729H144.729C145.266 110.729 145.901 111.068 146.047 111.51ZM151.755 112.828C152.245 113.703 152.193 113.703 151.021 112.922C149.703 112.047 149.51 111.604 150.094 111.068C150.438 110.729 150.781 111.068 151.755 112.828ZM129.01 112.239C129.547 113.073 128.964 113.266 128.281 112.437C127.891 111.995 127.891 111.703 128.182 111.703C128.474 111.703 128.865 111.948 129.01 112.239ZM131.693 112.437C131.354 112.875 130.964 113.073 130.865 112.974C130.526 112.63 131.208 111.703 131.792 111.703C132.083 111.703 132.083 111.995 131.693 112.437ZM97.4323 112.974C99.0938 113.167 100.458 113.51 100.458 113.703C100.458 113.948 99.8698 115.021 99.1406 116.047L97.7708 118L88.2552 118.047C63.4635 118.099 42.4271 123.859 31.6354 133.521C28.8542 136.01 26.2708 139.672 26.2708 141.036C26.2708 141.818 26.0729 141.818 23.8281 140.844C21.5833 139.864 21.3906 139.625 21.3906 138.062C21.3906 132.594 28.4635 125.323 38.2292 120.734C47.3542 116.437 58.5312 113.703 72.151 112.484C75.0781 112.239 93.5781 112.583 97.4323 112.974ZM119.198 112.63C119.349 112.875 119.151 113.312 118.76 113.656C118.125 114.146 118.031 114.094 118.031 113.219C118.031 112.193 118.714 111.849 119.198 112.63ZM141.943 113.51C141.943 114.146 141.797 114.146 141.214 113.656C140.823 113.312 140.625 112.875 140.776 112.63C141.167 111.995 141.943 112.583 141.943 113.51ZM194.417 113.167C207.932 114.974 220.672 119.172 228.141 124.297C234.292 128.448 238.583 134.156 238.583 138.109C238.583 139.771 238.438 139.917 236.339 140.745C235.12 141.182 234.094 141.526 234.047 141.427C234 141.333 233.411 140.161 232.776 138.891C229.359 132.156 217.938 125.469 203.344 121.76C193 119.073 187.922 118.437 174.354 118.198L162.151 117.953L161.078 116.391C158.932 113.266 158.88 113.312 164.74 112.922C167.62 112.776 170.255 112.536 170.5 112.385C171.375 112.047 190.411 112.63 194.417 113.167ZM111.88 113.411C111.589 114.193 110.708 114.437 110.708 113.755C110.708 113.219 111.245 112.682 111.734 112.682C111.979 112.682 112.026 113.021 111.88 113.411ZM149.167 113.557C149.464 114.437 148.438 114.245 148.094 113.364C147.901 112.875 148.047 112.682 148.385 112.776C148.682 112.875 149.073 113.266 149.167 113.557ZM104.021 113.948C104.557 114.536 101.385 118.047 100.359 118.047C99.2865 118.047 99.2865 118 100.948 115.51C102.068 113.802 103.286 113.219 104.021 113.948ZM159.078 115.463C160.687 118.047 160.688 118.047 159.615 118.047C158.688 118.047 156.099 115.219 156.099 114.193C156.099 112.922 158.052 113.802 159.078 115.463ZM127.693 115.172C126.766 115.802 126.328 115.708 126.328 114.927C126.328 114.484 126.667 114.338 127.349 114.484C128.13 114.682 128.182 114.875 127.693 115.172ZM133.646 114.828C133.646 115.318 133.307 115.411 132.573 115.219C131.547 114.974 131.547 114.927 132.474 114.583C132.964 114.391 133.453 114.193 133.552 114.193C133.599 114.146 133.646 114.437 133.646 114.828ZM105.828 114.828C105.828 114.927 105.438 115.318 104.995 115.656C104.214 116.292 104.167 116.245 104.802 115.463C105.438 114.682 105.828 114.437 105.828 114.828ZM155.172 115.463C155.807 116.245 155.76 116.292 155.026 115.656C154.198 115.021 153.953 114.63 154.344 114.63C154.438 114.63 154.828 115.021 155.172 115.463ZM110.708 115.318C110.708 115.854 109.781 116.047 109.49 115.609C109.339 115.364 109.536 115.12 109.927 115.12C110.365 115.12 110.708 115.219 110.708 115.318ZM150.729 115.318C150.729 115.854 149.802 116.047 149.51 115.609C149.365 115.364 149.557 115.12 149.948 115.12C150.391 115.12 150.729 115.219 150.729 115.318ZM107.292 115.802C107.292 115.901 106.901 116.292 106.464 116.635C105.682 117.271 105.63 117.219 106.266 116.437C106.901 115.656 107.292 115.411 107.292 115.802ZM115.344 116.099C115.688 116.682 112.807 118.198 112.125 117.755C111.438 117.364 113.052 115.609 114.172 115.609C114.661 115.609 115.151 115.802 115.344 116.099ZM147.51 116.536C148.682 117.854 147.703 118.292 145.802 117.271C144.578 116.682 144.385 116.391 144.922 116.047C145.948 115.411 146.583 115.51 147.51 116.536ZM153.708 116.437C154.344 117.219 154.292 117.271 153.562 116.635C152.729 116 152.49 115.609 152.88 115.609C152.974 115.609 153.365 116 153.708 116.437ZM124.229 116.391C124.083 116.536 123.641 116.583 123.302 116.437C122.911 116.292 123.057 116.146 123.594 116.146C124.13 116.099 124.422 116.245 124.229 116.391ZM108.755 116.781C108.755 116.88 108.172 117.364 107.438 117.807L106.073 118.682L107 117.656C107.828 116.682 108.755 116.245 108.755 116.781ZM128.964 117.318C128.667 118.099 127.792 118.344 127.792 117.656C127.792 117.12 128.328 116.583 128.818 116.583C129.057 116.583 129.109 116.927 128.964 117.318ZM131.99 117.901C131.646 118.245 130.719 117.562 130.719 116.974C130.719 116.682 131.01 116.682 131.453 117.073C131.891 117.417 132.083 117.807 131.99 117.901ZM152.438 117.073C152.583 117.364 152.391 117.417 152 117.271C151.12 116.927 150.974 116.583 151.656 116.583C151.953 116.583 152.292 116.781 152.438 117.073ZM116.615 119.661C115.734 120.536 115.396 119.609 116.078 118.198L116.76 116.828L116.953 118C117.052 118.635 116.906 119.364 116.615 119.661ZM144.141 118.588C144.922 120 144.875 120.099 144.042 119.906C143.505 119.807 143.115 119.219 143.021 118.391C142.823 116.682 143.214 116.729 144.141 118.588ZM118.76 118C118.906 118.245 118.807 118.588 118.516 118.781C118.271 118.927 118.031 118.734 118.031 118.344C118.031 117.463 118.323 117.318 118.76 118ZM141.943 118.344C141.943 118.734 141.703 118.927 141.458 118.781C141.167 118.588 141.068 118.245 141.214 118C141.651 117.318 141.943 117.463 141.943 118.344ZM111.438 118.536C111.589 118.781 111.391 119.026 110.953 119.026C110.51 119.026 110.318 118.781 110.464 118.536C110.609 118.245 110.854 118.047 110.953 118.047C111.047 118.047 111.292 118.245 111.438 118.536ZM124.375 118.489C124.375 118.979 122.911 119.661 122.568 119.318C122.422 119.172 122.469 118.88 122.667 118.588C123.057 117.953 124.375 117.854 124.375 118.489ZM137.307 118.489C137.797 119.318 136.724 119.516 136.089 118.781C135.599 118.198 135.599 118.047 136.234 118.047C136.672 118.047 137.115 118.245 137.307 118.489ZM149.266 118.536C149.266 118.781 149.021 119.026 148.729 119.026C148.484 119.026 148.385 118.781 148.536 118.536C148.682 118.245 148.927 118.047 149.073 118.047C149.167 118.047 149.266 118.245 149.266 118.536ZM95.2865 121.417L93.4792 123.807L88.7917 124.151C76.1979 124.979 65.901 126.833 56.2865 130.005C46.526 133.182 39.4479 137.083 35.2969 141.526L32.9583 144.016L30.125 143.187C28.5156 142.698 27.2448 142.109 27.2448 141.87C27.2448 140.891 28.9531 138.255 31.099 135.963C37.9844 128.594 51.9896 122.833 69.2188 120.297C76.5885 119.219 76.7865 119.172 87.4271 119.125L97.0417 119.026L95.2865 121.417ZM99.9688 119.364C99.9688 119.609 98.7969 120.734 97.3854 121.953L94.8438 124.151L96.2604 122.198C97.0417 121.125 97.9219 119.953 98.1615 119.609C98.651 118.979 99.9688 118.781 99.9688 119.364ZM121.448 120.297C121.448 120.979 120.859 121.224 120.323 120.687C119.885 120.245 120.516 118.979 121.005 119.318C121.25 119.463 121.448 119.906 121.448 120.297ZM125.839 119.516C125.839 119.755 125.594 120 125.302 120C125.057 120 124.958 119.755 125.104 119.516C125.25 119.219 125.495 119.026 125.641 119.026C125.74 119.026 125.839 119.219 125.839 119.516ZM134.87 119.516C135.016 119.755 134.917 120 134.672 120C134.38 120 134.135 119.755 134.135 119.516C134.135 119.219 134.234 119.026 134.333 119.026C134.479 119.026 134.724 119.219 134.87 119.516ZM163.323 121.708L165.13 124.151L162.542 122.052C159.469 119.463 159.078 118.88 160.495 119.125C161.078 119.219 162.297 120.344 163.323 121.708ZM187.042 119.755C205.688 121.953 221.505 128.104 228.875 135.963C231.021 138.255 232.729 140.891 232.729 141.87C232.729 142.109 231.458 142.698 229.849 143.187L227.016 144.016L224.922 141.771C216.328 132.448 196.271 125.906 170.891 124.099L166.448 123.807L164.932 121.708C164.104 120.536 163.422 119.463 163.422 119.318C163.422 118.734 180.99 119.073 187.042 119.755ZM102.411 120.489C101.875 121.516 98.9427 123.906 98.2135 123.906C98.0156 123.906 98.7969 122.932 99.9688 121.708C102.266 119.417 103.286 118.88 102.411 120.489ZM139.896 120.391C139.995 120.734 139.75 120.979 139.307 120.979C138.87 120.979 138.526 120.635 138.526 120.198C138.526 119.364 139.604 119.516 139.896 120.391ZM159.76 121.463C160.786 122.542 161.516 123.516 161.37 123.661C161.031 124.052 158.198 121.614 157.516 120.443C156.734 118.927 157.708 119.364 159.76 121.463ZM105.339 121.953C103.286 123.76 101.63 124.489 102.021 123.417C102.266 122.687 106.021 120.052 106.802 120.052C107.193 120.052 106.557 120.88 105.339 121.953ZM155.562 121.271C157.516 122.542 158.49 123.906 157.417 123.906C156.635 123.859 152.292 120 153.073 120C153.417 120 154.536 120.588 155.562 121.271ZM113.391 120.979C113.245 121.224 112.609 121.708 112.026 122.005C111 122.489 111 122.443 112.125 121.516C113.344 120.391 113.88 120.198 113.391 120.979ZM130.719 122.005C130.719 122.489 130.375 122.932 129.99 122.932C129.255 122.932 128.964 121.417 129.547 120.833C130.083 120.344 130.719 120.979 130.719 122.005ZM148.484 121.906C148.682 122.151 148.24 122.099 147.557 121.807C146.875 121.463 146.339 121.026 146.339 120.833C146.339 120.391 148.094 121.271 148.484 121.906ZM150.781 121.807L151.953 123.172L150.484 121.953C149.703 121.271 148.927 120.687 148.828 120.588C148.729 120.536 148.828 120.489 149.12 120.489C149.365 120.489 150.094 121.073 150.781 121.807ZM110.219 121.125C110.219 121.224 109.781 121.708 109.245 122.198C108.073 123.224 107.927 122.88 109.047 121.76C109.781 121.026 110.219 120.781 110.219 121.125ZM117.052 122.635C117.052 122.979 116.661 123.417 116.224 123.562C115.734 123.661 114.906 123.953 114.37 124.151C113.688 124.396 113.833 124.099 114.854 123.224C116.516 121.807 117.052 121.661 117.052 122.635ZM145.12 123.224C146.141 124.099 146.286 124.396 145.604 124.151C145.068 123.953 144.24 123.661 143.802 123.562C143.313 123.417 142.922 122.979 142.922 122.635C142.922 121.661 143.458 121.807 145.12 123.224ZM106.703 123.37C106.365 123.906 105.922 124.198 105.682 124.052C105.484 123.906 105.682 123.516 106.167 123.125C107.339 122.245 107.391 122.297 106.703 123.37ZM121.932 123.224C121.932 123.614 121.688 123.807 121.448 123.661C121.151 123.469 121.057 123.125 121.203 122.88C121.641 122.198 121.932 122.344 121.932 123.224ZM138.771 122.88C138.917 123.125 138.823 123.469 138.526 123.661C138.286 123.807 138.042 123.614 138.042 123.224C138.042 122.344 138.333 122.198 138.771 122.88ZM112.172 123.661C111.828 124.052 111.198 124.396 110.755 124.396C110.219 124.344 110.365 124.151 111.198 123.661C112.755 122.781 112.906 122.781 112.172 123.661ZM149.266 124.297C148.927 124.443 148.339 124.151 147.901 123.661C147.12 122.932 147.167 122.88 148.484 123.469C149.219 123.807 149.609 124.198 149.266 124.297ZM154.344 123.953C154.052 124.489 153.172 124.052 153.172 123.417C153.172 123.172 153.51 123.078 153.901 123.224C154.292 123.417 154.49 123.713 154.344 123.953ZM120.76 124.641C121.641 125.323 121.594 125.323 120.13 125.37C118.615 125.37 118.125 124.932 118.859 124.25C119.349 123.76 119.688 123.807 120.76 124.641ZM141.359 124.786C141.458 125.177 140.969 125.37 139.896 125.37C138.38 125.323 138.333 125.323 139.26 124.641C140.286 123.807 141.068 123.906 141.359 124.786ZM90.3542 127.713L88.0104 130.594L82.1562 131.474C67.3177 133.667 53.3594 138.401 44.8177 144.161C41.9375 146.114 40.9583 146.161 36.276 144.844L34.3229 144.307L37.6406 141.234C47.1615 132.349 66.7813 126.443 91.5729 124.932C92.651 124.88 92.5 125.125 90.3542 127.713ZM104.849 125.516C104.458 125.906 103.24 126.687 102.167 127.276L100.214 128.396L102.021 126.641C103.047 125.661 104.214 124.88 104.703 124.88C105.437 124.88 105.438 124.979 104.849 125.516ZM126.812 125.614C126.812 126.443 126.719 126.495 125.594 126.052C124.958 125.807 124.911 125.661 125.448 125.323C126.375 124.687 126.812 124.786 126.812 125.614ZM134.526 125.323C135.063 125.661 135.063 125.76 134.479 126.005C133.698 126.297 133.161 126.005 133.161 125.271C133.161 124.786 133.698 124.786 134.526 125.323ZM157.953 126.641L159.76 128.349L157.224 126.833C154.49 125.177 154.198 124.88 155.417 124.88C155.807 124.88 156.979 125.661 157.953 126.641ZM180.75 126.151C198.219 128.203 214.521 134.057 222.188 141.036C223.943 142.651 225.307 144.161 225.161 144.359C225.068 144.599 223.307 145.042 221.354 145.38L217.745 145.969L215.354 144.26C207.594 138.745 192.073 133.474 177.573 131.422L171.865 130.594L169.573 127.76L167.276 124.88L170.839 125.125C172.792 125.323 177.281 125.76 180.75 126.151ZM108.708 126.297C108.073 126.786 107 127.469 106.365 127.812L105.193 128.396L106.266 126.885C107 125.859 107.781 125.37 108.609 125.37H109.88L108.708 126.297ZM131.693 126.588C131.693 126.739 130.865 126.833 129.891 126.833C128.182 126.786 128.083 126.739 128.964 126.104C129.599 125.614 130.135 125.568 130.766 125.906C131.307 126.151 131.693 126.495 131.693 126.588ZM152.682 125.859C153.219 126.151 153.854 126.833 154.198 127.37C154.682 128.297 154.635 128.349 153.562 127.76C152.927 127.469 151.901 126.786 151.266 126.297C150.339 125.568 150.292 125.37 150.927 125.37C151.411 125.37 152.193 125.614 152.682 125.859ZM113.146 126.588C112.807 127.031 112.417 127.224 112.318 127.13C111.979 126.786 112.661 125.859 113.245 125.859C113.536 125.859 113.536 126.151 113.146 126.588ZM116.078 126.833C114.906 127.568 114.318 127.37 115.396 126.641C115.88 126.25 116.417 126.052 116.562 126.151C116.661 126.297 116.469 126.588 116.078 126.833ZM145.167 127.177C144.875 127.469 143.411 126.739 143.411 126.297C143.411 126.052 143.849 126.104 144.385 126.443C144.875 126.786 145.266 127.13 145.167 127.177ZM147.557 126.396C148.094 127.224 147.656 127.276 146.63 126.542C145.802 125.958 145.802 125.859 146.438 125.859C146.875 125.859 147.411 126.104 147.557 126.396ZM121.594 127.812C121.349 128.838 119.25 129.667 118.615 129.031C118.224 128.641 120.323 126.833 121.203 126.833C121.594 126.833 121.74 127.224 121.594 127.812ZM124.375 127.031C124.375 127.177 124.177 127.422 123.885 127.568C123.641 127.713 123.396 127.614 123.396 127.37C123.396 127.078 123.641 126.833 123.885 126.833C124.177 126.833 124.375 126.932 124.375 127.031ZM136.578 127.323C136.578 127.568 136.479 127.812 136.38 127.812C136.234 127.812 135.99 127.568 135.844 127.323C135.698 127.031 135.797 126.833 136.042 126.833C136.333 126.833 136.578 127.031 136.578 127.323ZM140.531 127.76C141.896 128.885 141.505 129.521 139.75 129.078C138.969 128.885 138.526 128.448 138.526 127.812C138.526 126.588 139.068 126.588 140.531 127.76ZM93.1354 127.469C93.1354 127.568 92.4063 128.25 91.5729 129.078L89.9635 130.495L91.3802 128.885C92.7448 127.422 93.1354 127.078 93.1354 127.469ZM110.219 127.76C110.219 128.739 108.609 129.766 107.146 129.766H105.583L107.536 128.542C109.682 127.224 110.219 127.078 110.219 127.76ZM151.854 128.396C152.974 128.932 153.609 129.521 153.271 129.667C152.391 129.958 149.901 128.838 149.557 128.005C149.219 127.078 149.411 127.13 151.854 128.396ZM157.562 129.375C157.562 129.958 157.271 129.812 156.297 128.739C155.37 127.667 155.37 127.667 156.49 128.349C157.078 128.739 157.562 129.177 157.562 129.375ZM103.385 129.031C103.047 129.422 102.557 129.766 102.266 129.766C101.969 129.766 102.167 129.422 102.703 129.031C103.922 128.104 104.167 128.104 103.385 129.031ZM114.807 129.031C114.318 129.422 113.443 129.713 112.906 129.713C112.172 129.713 112.271 129.568 113.391 129.031C115.344 128.151 115.979 128.151 114.807 129.031ZM147.312 129.323C147.901 129.667 147.849 129.713 147.021 129.766C146.484 129.766 145.604 129.422 145.068 128.984C144.193 128.297 144.193 128.25 145.359 128.594C146.047 128.739 146.922 129.078 147.312 129.323ZM117.542 129.276C117.542 129.521 117.297 129.766 117.005 129.766C116.76 129.766 116.661 129.521 116.807 129.276C116.953 128.984 117.198 128.786 117.344 128.786C117.443 128.786 117.542 128.984 117.542 129.276ZM126.328 129.13C126.276 130.057 125.448 130.739 124.714 130.448C123.25 129.911 123.839 129.177 125.984 128.838C126.182 128.838 126.328 128.932 126.328 129.13ZM135.651 129.276C136.38 129.276 136.135 130.104 135.26 130.448C134.818 130.641 134.281 130.495 134.036 130.156C133.453 129.13 133.599 128.641 134.427 128.984C134.87 129.13 135.406 129.276 135.651 129.276ZM130.964 130.203C131.354 130.885 130.328 131.375 129.354 130.984C128.667 130.739 128.667 130.641 129.255 130.25C130.182 129.667 130.573 129.667 130.964 130.203ZM105.339 130.932C105.339 131.031 104.901 131.229 104.365 131.375C103.828 131.521 103.484 131.422 103.677 131.177C103.922 130.739 105.339 130.542 105.339 130.932ZM111.198 130.932C111.198 131.031 110.854 131.276 110.417 131.422C110.026 131.568 109.828 131.521 109.974 131.229C110.271 130.739 111.198 130.542 111.198 130.932ZM150 131.229C150.146 131.521 149.948 131.568 149.557 131.422C148.682 131.083 148.536 130.739 149.219 130.739C149.51 130.739 149.854 130.932 150 131.229ZM155.464 133.474C155.073 133.911 152.146 132.547 151.708 131.713C151.318 130.932 151.563 130.984 153.464 132.057C154.682 132.739 155.563 133.375 155.464 133.474ZM156.344 131.229C156.49 131.521 156.297 131.568 155.906 131.422C155.026 131.083 154.88 130.739 155.562 130.739C155.854 130.739 156.198 130.932 156.344 131.229ZM108.266 131.766C108.266 132.203 105.385 133.667 104.51 133.667C104.167 133.667 107.729 131.276 108.172 131.229C108.219 131.229 108.266 131.474 108.266 131.766ZM119.979 131.958C119.979 132.349 119.786 132.693 119.495 132.693C119.25 132.693 119.005 132.349 119.005 131.958C119.005 131.568 119.25 131.229 119.495 131.229C119.786 131.229 119.979 131.568 119.979 131.958ZM122.911 131.713C122.911 131.958 122.568 132.203 122.177 132.203C121.786 132.203 121.448 131.958 121.448 131.713C121.448 131.422 121.786 131.229 122.177 131.229C122.568 131.229 122.911 131.422 122.911 131.713ZM138.526 131.713C138.526 131.958 138.188 132.203 137.797 132.203C137.406 132.203 137.062 131.958 137.062 131.713C137.062 131.422 137.406 131.229 137.797 131.229C138.188 131.229 138.526 131.422 138.526 131.713ZM140.969 132.25C140.969 132.495 140.776 132.693 140.479 132.693C140.234 132.693 139.995 132.349 139.995 131.911C139.995 131.521 140.234 131.323 140.479 131.474C140.776 131.62 140.969 131.958 140.969 132.25ZM83.7656 135.083C80.7396 138.401 80.6406 138.453 76.3958 139.526C70.4896 140.943 64.3385 143.042 58.9219 145.38C54.4323 147.333 54.2344 147.385 50.4271 147.042C48.2812 146.844 46.0365 146.552 45.3542 146.406C44.2292 146.068 44.2812 146.016 46.1354 144.797C49.8437 142.354 56.9687 139.036 62.8281 137.083C67.8073 135.427 79.276 132.792 84.5938 132.057C85.4271 131.958 86.2552 131.812 86.4479 131.766C86.6927 131.766 85.474 133.229 83.7656 135.083ZM151.172 133.958C151.563 134.302 151.755 134.739 151.609 134.937C151.172 135.328 145.849 132.885 145.849 132.25C145.849 131.667 150.193 133.031 151.172 133.958ZM183.922 133.719C191.927 135.281 200.953 138.062 206.37 140.646C210.474 142.599 215.792 145.87 215.5 146.213C215.354 146.307 213.156 146.651 210.521 146.896L205.786 147.385L201.542 145.578C196.365 143.333 189.24 140.891 183.578 139.474C179.38 138.401 179.188 138.307 176.161 135.083L173.036 131.766L174.938 132.01C176.016 132.156 180.016 132.937 183.922 133.719ZM114.125 132.448C114.125 132.838 109.146 135.13 108.266 135.13C107.729 135.13 107.729 134.984 108.411 134.255C109.729 132.984 114.125 131.568 114.125 132.448ZM118.031 132.693C118.031 132.937 117.542 133.182 116.953 133.182C116.026 133.182 115.979 133.083 116.562 132.693C117.49 132.057 118.031 132.057 118.031 132.693ZM128.281 132.885C128.281 133.276 128.427 133.911 128.573 134.349C128.818 134.984 128.521 135.13 127.302 135.13C125.938 135.13 125.792 135.036 126.13 134.01C126.62 132.349 128.281 131.521 128.281 132.885ZM130.672 132.792C130.672 133.13 130.474 133.864 130.229 134.401C129.891 135.182 129.792 135.229 129.792 134.547C129.745 134.109 129.599 133.422 129.448 132.984C129.255 132.448 129.401 132.203 129.938 132.203C130.375 132.203 130.719 132.495 130.672 132.792ZM133.745 133.375C134.526 134.5 134.089 135.13 132.625 135.13C131.453 135.13 131.156 134.984 131.401 134.349C131.547 133.911 131.693 133.276 131.693 132.885C131.693 132.156 133.161 132.495 133.745 133.375ZM143.411 132.984C143.411 133.083 143.068 133.182 142.677 133.182C142.286 133.182 141.943 132.984 141.943 132.693C141.943 132.448 142.286 132.349 142.677 132.495C143.068 132.693 143.411 132.885 143.411 132.984ZM125.01 133.667C124.865 134.203 124.667 134.646 124.568 134.646C124.474 134.646 124.375 134.203 124.375 133.667C124.375 133.13 124.568 132.693 124.812 132.693C125.057 132.693 125.156 133.13 125.01 133.667ZM135.599 133.911C135.599 134.594 135.5 135.13 135.406 135.13C135.307 135.13 135.109 134.594 135.016 133.911C134.87 133.229 134.964 132.693 135.161 132.693C135.406 132.693 135.599 133.229 135.599 133.911ZM123.396 134.203C123.396 134.448 122.667 134.646 121.839 134.646L120.224 134.594L121.448 133.958C122.667 133.276 123.396 133.328 123.396 134.203ZM138.526 133.911L139.75 134.594L138.188 134.646C137.062 134.646 136.578 134.401 136.578 133.911C136.578 133.031 136.969 133.031 138.526 133.911ZM112.219 136.302C111.589 137.036 106.948 138.354 106.51 137.917C105.974 137.375 109.828 135.818 112.125 135.667C112.609 135.62 112.661 135.766 112.219 136.302ZM117.786 136.109C117.641 136.354 117.005 136.599 116.417 136.547C115.396 136.547 115.396 136.5 116.323 136.109C117.688 135.521 118.125 135.521 117.786 136.109ZM121.297 135.911C121.151 136.057 120.714 136.109 120.37 135.963C119.979 135.818 120.13 135.667 120.667 135.667C121.203 135.62 121.495 135.766 121.297 135.911ZM139.844 135.911C139.698 136.057 139.26 136.109 138.917 135.963C138.526 135.818 138.677 135.667 139.214 135.667C139.75 135.62 140.042 135.766 139.844 135.911ZM143.411 136.109C144.042 136.547 144.042 136.599 143.411 136.599C143.021 136.599 142.333 136.354 141.943 136.109C141.313 135.667 141.313 135.62 141.943 135.62C142.333 135.62 143.021 135.864 143.411 136.109ZM150.635 136.354C153.708 137.281 154.589 138.255 151.854 137.766C150 137.427 147.312 136.302 147.312 135.864C147.312 135.474 147.948 135.573 150.635 136.354ZM129.255 137.818C129.255 139.474 129.208 139.526 127.302 139.526C125.938 139.526 125.349 139.328 125.302 138.792C125.25 138.401 125.203 137.766 125.156 137.474C125.104 136.937 126.667 136.354 128.667 136.156C129.01 136.109 129.255 136.745 129.255 137.818ZM134.724 136.984C134.917 137.182 134.964 137.818 134.818 138.453C134.573 139.328 134.182 139.526 132.625 139.526C130.766 139.526 130.719 139.474 130.719 137.766V136.01L132.573 136.354C133.552 136.5 134.526 136.838 134.724 136.984ZM123.693 137.672C123.547 138.307 123.396 138.989 123.396 139.182C123.396 139.427 122.568 139.526 121.594 139.427C120.13 139.328 119.688 139.036 119.589 138.208C119.443 137.375 119.74 137.135 120.812 136.937C123.839 136.5 124.031 136.547 123.693 137.672ZM139.406 137.083C140.333 137.083 140.531 137.328 140.385 138.156C140.286 139.083 139.896 139.328 138.432 139.427C137.406 139.526 136.578 139.427 136.578 139.182C136.578 138.989 136.432 138.255 136.234 137.62C135.99 136.547 136.042 136.5 137.115 136.745C137.75 136.937 138.771 137.083 139.406 137.083ZM117.688 138.354C117.344 139.328 115.542 140.016 113.344 140.016C111.828 140.016 111.682 139.917 112.172 139.083C112.661 138.109 113.688 137.766 116.417 137.62C117.688 137.573 117.932 137.719 117.688 138.354ZM147.411 138.693C148.047 139.719 147.849 140.016 146.385 140.016C144.286 140.016 142.432 139.182 142.432 138.255C142.432 137.573 142.776 137.474 144.729 137.766C145.995 137.917 147.167 138.354 147.411 138.693ZM111.198 138.745C111.198 139.672 109.339 140.5 107.391 140.453L105.094 140.401L107.536 139.526C109.974 138.599 111.198 138.354 111.198 138.745ZM152 139.328C154.682 140.255 155.76 140.943 154.052 140.698C150.146 140.161 149.318 139.917 149.073 139.281C148.729 138.354 149.021 138.354 152 139.328ZM78.0052 141.333C76.4948 143.281 73.3698 145.286 70.4896 146.161C68.1458 146.896 57.4583 147.776 57.9948 147.187C58.9219 146.213 76.1042 140.255 78.6406 140.062C78.8854 140.016 78.5937 140.599 78.0052 141.333ZM187.339 141.724C190.609 142.698 195.292 144.307 197.781 145.286L202.224 147.088L199.052 147.234C193.484 147.479 186.604 145.724 183.922 143.333C182.698 142.208 180.797 140.016 181.089 140.016C181.286 140.016 184.068 140.792 187.339 141.724ZM112.516 149.432C105.24 163.927 97.3333 174.958 87.7188 184.088C76.25 195.021 64.974 200.245 57.5052 198.094C54.4792 197.219 53.9948 196.531 54.3333 193.896L54.6771 191.505L57.5052 191.651C65.6562 192.141 76.5417 186.042 87.526 174.911C95.3333 167.005 102.313 157.437 108.802 145.771L111.438 141.036L113.88 140.891C115.198 140.792 116.417 140.792 116.516 140.891C116.661 140.943 114.854 144.797 112.516 149.432ZM119.495 144.26L120.078 148.068L118.37 151.969C116.172 157.146 113 163.391 110.656 167.25C109.583 168.958 108.755 170.469 108.755 170.521C108.755 170.614 107.536 172.521 106.021 174.766C97.4323 187.406 87.3281 197.219 77.5156 202.437C73.5625 204.536 67.4167 206.391 64.3385 206.391C61.6042 206.391 57.9479 205.125 55.9427 203.463C54.3802 202.146 54.0885 201.609 54.0885 200.047V198.146L56.0885 198.828C64.1458 201.708 76.4948 196.583 88.3542 185.453C98.9948 175.448 108.609 161.344 116.224 144.505C117.25 142.307 118.224 140.5 118.469 140.5C118.714 140.5 119.151 142.208 119.495 144.26ZM122.078 142.552C121.25 145.042 120.469 146.016 120.469 144.552C120.469 144.016 120.323 142.844 120.177 142.016C119.885 140.599 119.932 140.5 121.349 140.5H122.812L122.078 142.552ZM125.495 145.042L126.276 148.849L124.766 152.849L123.203 156.854L122.323 153.193C121.885 151.193 121.495 149.094 121.448 148.552C121.448 147.141 123.984 140.401 124.375 140.844C124.568 141.036 125.057 142.943 125.495 145.042ZM127.839 143.479L127.057 146.458L126.474 144.599C125.495 141.333 125.641 140.5 127.203 140.5H128.62L127.839 143.479ZM131.354 144.797L132.526 148.75L131.354 152.802C130.719 154.995 130.135 156.901 130.036 156.948C129.938 157.047 129.354 155.193 128.667 152.849C127.594 148.995 127.5 148.359 128.083 146.604C128.427 145.526 128.964 143.672 129.255 142.5C129.547 141.38 129.891 140.5 129.99 140.599C130.135 140.698 130.719 142.599 131.354 144.797ZM134.135 141.333C134.135 142.406 133.161 146.016 132.917 145.771C132.865 145.724 132.427 144.453 132.036 143.042L131.255 140.5H132.719C133.745 140.5 134.135 140.745 134.135 141.333ZM137.552 144.989L138.677 148.26L137.797 152.51C136.771 157.292 136.625 157.245 134.672 151.338C133.792 148.75 133.698 147.969 134.135 146.213C134.427 145.088 134.917 143.281 135.208 142.208C135.745 140.016 135.891 140.161 137.552 144.989ZM139.797 141.573C139.651 142.208 139.505 143.187 139.505 143.771C139.505 145.578 138.823 145.088 137.943 142.698L137.115 140.5H138.625C139.943 140.5 140.089 140.646 139.797 141.573ZM142.969 142.797C144.677 146.844 149.755 156.703 152.344 161C160.005 173.739 170.156 185.354 179.281 191.896C183.187 194.63 190.365 198.193 193.781 199.021C196.953 199.755 201.49 199.708 203.885 198.828L205.932 198.094L205.786 200.146C205.641 201.901 205.349 202.437 203.589 203.755C200.661 206 197 206.734 192.609 206C185.188 204.734 176.99 200.047 168.938 192.531C158.344 182.573 148.927 168.713 141.943 152.703L139.943 148.068L140.531 144.26C140.823 142.208 141.313 140.5 141.552 140.5C141.797 140.5 142.432 141.526 142.969 142.797ZM149.12 141.87C149.703 143.427 154.344 151.531 157.026 155.63C167.667 171.838 179.526 183.453 191.339 189.068C195.438 191.068 199.151 191.896 202.714 191.651L205.297 191.505L205.641 193.896C205.979 196.531 205.495 197.219 202.469 198.094C194.609 200.338 182.651 194.531 170.693 182.526C161.125 172.958 154.292 163.146 147.266 149.042C145.167 144.75 143.411 141.135 143.411 140.989C143.411 140.844 144.63 140.844 146.141 140.891C148.094 141.036 148.927 141.281 149.12 141.87ZM107.729 145.234C97.724 163.489 84.2552 178.766 71.4167 186.281C65.5104 189.75 57.7969 191.703 55.6042 190.333C55.0156 189.943 55.0156 189.458 55.5052 187.016L56.1406 184.135L59.1146 183.599C71.026 181.307 89.0833 165.198 101.531 145.771C104.021 141.917 104.365 141.672 107.927 141.526L109.781 141.479L107.729 145.234ZM154.536 141.771C155.76 142.016 156.589 142.891 159.125 146.75C165.229 156.073 173.526 165.734 181.141 172.422C187.729 178.182 196.562 183.062 201.688 183.745L203.833 184.036L204.422 187.016C205.104 190.625 204.813 190.922 200.76 190.625C197.536 190.385 192.557 188.578 188.214 186.042C175.865 178.818 161.76 162.755 151.953 144.75L150.146 141.479H151.609C152.391 141.479 153.708 141.625 154.536 141.771ZM101.677 143.281C90.5521 160.661 77.4687 173.984 65.5104 179.937C62.6823 181.354 57.1146 183.255 56.776 182.864C56.6771 182.771 57.1667 181.01 57.8958 178.963C59.0208 175.594 59.3125 175.104 60.7292 174.667C64.9271 173.25 73.3229 167.25 80.8854 160.219C84.1562 157.193 92.7969 147.234 94.599 144.453C95.1875 143.578 96.1146 143.187 98.75 142.698C100.651 142.354 102.266 142.062 102.359 142.016C102.458 142.016 102.12 142.552 101.677 143.281ZM164.104 143.281C164.396 143.38 166.203 145.479 168.057 147.922C176.797 159.292 190.609 171.104 198.953 174.422C200.906 175.255 201.052 175.401 202.177 179.01C202.807 181.062 203.25 182.818 203.151 182.864C202.859 183.255 197.198 181.307 194.219 179.792C187.583 176.422 179.281 169.739 172.839 162.516C167.62 156.656 158.052 143.818 158.052 142.651C158.052 142.354 163.13 142.844 164.104 143.281ZM93.1354 144.208C93.1354 145.87 76.7396 162.906 71.2708 166.859C67.7083 169.443 60.3385 173.786 60.0469 173.448C59.8958 173.349 60.875 171.057 62.1458 168.422C63.7552 165.005 64.8281 163.344 65.8542 162.755C68.7812 161.052 74.9792 155.828 80.1042 150.802C85.3281 145.677 85.4271 145.625 88.8906 144.797C93.0885 143.87 93.1354 143.87 93.1354 144.208ZM171.281 144.943C174.354 145.526 174.5 145.625 180.26 151.239C185.484 156.266 194.219 163.443 195.146 163.443C195.536 163.443 200.172 173.203 199.927 173.495C199.536 173.838 192.021 169.297 188.359 166.469C183.286 162.609 177.724 157.245 172.745 151.484C167.714 145.771 166.156 143.578 167.422 144.016C167.865 144.208 169.62 144.599 171.281 144.943ZM78.9844 150.068C75.4687 153.63 66.6823 161.099 66.3906 160.755C66 160.417 70.5365 153.677 72.5417 151.578C75.4167 148.604 79.1302 146.505 81.6667 146.406C82.349 146.359 81.6198 147.333 78.9844 150.068ZM182.797 147.922C183.922 148.406 186.068 150.167 187.484 151.729C190.021 154.458 194.026 160.364 193.583 160.755C193.292 161.099 183.922 153.047 180.505 149.531L177.333 146.26L179.042 146.604C179.969 146.797 181.677 147.385 182.797 147.922ZM38.3229 147.625C38.1771 147.776 37.7396 147.823 37.3958 147.677C37.0052 147.531 37.151 147.385 37.6927 147.385C38.2292 147.333 38.5208 147.479 38.3229 147.625ZM222.823 147.625C222.672 147.776 222.234 147.823 221.896 147.677C221.505 147.531 221.651 147.385 222.188 147.385C222.724 147.333 223.016 147.479 222.823 147.625ZM227.214 148.114C227.068 148.26 226.63 148.312 226.286 148.167C225.896 148.016 226.042 147.87 226.578 147.87C227.115 147.823 227.406 147.969 227.214 148.114ZM36.1771 148.651C35.8333 148.75 35.25 148.75 34.9583 148.651C34.6146 148.505 34.8594 148.406 35.5417 148.406C36.224 148.406 36.4687 148.505 36.1771 148.651ZM225.068 148.651C224.724 148.75 224.141 148.75 223.844 148.651C223.505 148.505 223.75 148.406 224.432 148.406C225.115 148.406 225.359 148.505 225.068 148.651ZM39.1042 149.141C38.7656 149.239 38.1771 149.239 37.8854 149.141C37.5417 148.995 37.7865 148.896 38.4688 148.896C39.1563 148.896 39.401 148.995 39.1042 149.141ZM222.135 149.141C221.797 149.239 221.208 149.239 220.917 149.141C220.573 148.995 220.818 148.896 221.505 148.896C222.188 148.896 222.432 148.995 222.135 149.141ZM46.4271 149.63C45.5469 149.724 44.0833 149.724 43.2552 149.63C42.375 149.531 43.0573 149.432 44.8177 149.432C46.5729 149.432 47.2552 149.531 46.4271 149.63ZM216.771 149.63C215.891 149.724 214.427 149.724 213.594 149.63C212.719 149.531 213.401 149.432 215.156 149.432C216.917 149.432 217.599 149.531 216.771 149.63ZM226.385 149.776C225.995 150.021 225.115 150.213 224.432 150.213C223.307 150.167 223.307 150.114 224.677 149.776C226.776 149.239 227.214 149.239 226.385 149.776ZM36.1771 150.114C35.8333 150.213 35.25 150.213 34.9583 150.114C34.6146 149.969 34.8594 149.87 35.5417 149.87C36.224 149.87 36.4687 149.969 36.1771 150.114ZM38.3229 150.557C38.1771 150.703 37.7396 150.75 37.3958 150.604C37.0052 150.458 37.151 150.312 37.6927 150.312C38.2292 150.26 38.5208 150.411 38.3229 150.557ZM41.2552 150.557C41.1094 150.703 40.6667 150.75 40.3281 150.604C39.9375 150.458 40.0833 150.312 40.6198 150.312C41.1562 150.26 41.4479 150.411 41.2552 150.557ZM145.458 162.708C159.417 189.797 180.943 208.443 196.854 207.224C200.417 206.979 202.224 206.391 204.615 204.734L206.031 203.755L205.688 205.219C205.151 207.271 203.151 209.713 200.615 211.323C197.734 213.177 195.635 213.713 191.729 213.713C174.208 213.713 151.953 191.995 138.771 162.026L137.406 158.854L138.234 155.193C138.724 153.141 139.214 151.141 139.307 150.75C139.458 150.359 140.286 151.729 141.26 153.922C142.188 156.073 144.042 160.026 145.458 162.708ZM219.891 150.557C219.745 150.703 219.307 150.75 218.964 150.604C218.573 150.458 218.719 150.312 219.255 150.312C219.797 150.26 220.089 150.411 219.891 150.557ZM222.823 150.557C222.672 150.703 222.234 150.75 221.896 150.604C221.505 150.458 221.651 150.312 222.188 150.312C222.724 150.26 223.016 150.411 222.823 150.557ZM44.9635 151.094C44.3281 151.193 43.3542 151.193 42.7656 151.094C42.1302 150.995 42.6198 150.896 43.8385 150.896C45.0625 150.896 45.5469 150.995 44.9635 151.094ZM121.641 154.802L122.521 158.802L120.469 163.443C110.026 187.161 92.6979 206.588 76.9323 212.104C72.8333 213.568 66.6354 214.104 63.6094 213.276C59.4583 212.203 54.0885 207.417 54.0885 204.88C54.0885 204.146 54.4323 204.245 56.724 205.463C70.2448 212.786 93.0365 198.146 109.49 171.495C112.563 166.562 117.979 156.167 119.495 152.312C119.833 151.484 120.224 150.75 120.422 150.75C120.615 150.75 121.151 152.557 121.641 154.802ZM217.255 151.094C216.62 151.193 215.646 151.193 215.062 151.094C214.427 150.995 214.911 150.896 216.135 150.896C217.354 150.896 217.844 150.995 217.255 151.094ZM35.8854 151.531C35.7396 151.677 35.2969 151.729 34.9583 151.578C34.5677 151.432 34.7135 151.286 35.25 151.286C35.7865 151.239 36.0781 151.385 35.8854 151.531ZM127.302 151.823C127.302 152.167 127.792 153.922 128.328 155.729L129.401 159L128.036 162.953C127.255 165.099 126.474 166.859 126.328 166.859C126.13 166.859 125.495 165.005 124.865 162.755L123.786 158.708L125.156 154.948C126.474 151.578 127.302 150.312 127.302 151.823ZM134.771 155.094L136.135 158.953L135.062 162.906C134.479 165.099 133.792 166.713 133.599 166.516C133.063 165.932 130.719 159.974 130.719 159.146C130.719 158.172 132.865 151.239 133.161 151.239C133.307 151.239 134.036 152.948 134.771 155.094ZM225.26 151.531C225.115 151.677 224.677 151.729 224.333 151.578C223.943 151.432 224.089 151.286 224.625 151.286C225.161 151.239 225.458 151.385 225.26 151.531ZM37.8385 152.021C37.6927 152.167 37.25 152.213 36.9115 152.068C36.5208 151.922 36.6667 151.776 37.2031 151.776C37.7396 151.729 38.0312 151.875 37.8385 152.021ZM46.9167 152.312C46.6198 152.849 39.5469 152.802 39.25 152.266C39.1042 152.068 40.8125 151.875 43.0573 151.922C45.3021 151.922 47.0625 152.12 46.9167 152.312ZM220.724 152.266C220.427 152.802 213.354 152.849 213.057 152.312C212.911 152.12 214.672 151.922 216.917 151.922C219.161 151.875 220.87 152.068 220.724 152.266ZM223.307 152.021C223.161 152.167 222.724 152.213 222.38 152.068C221.99 151.922 222.135 151.776 222.672 151.776C223.214 151.729 223.505 151.875 223.307 152.021ZM53.2604 153.047C52.9167 153.141 52.3333 153.141 52.0417 153.047C51.6979 152.901 51.9427 152.802 52.625 152.802C53.3073 152.802 53.5521 152.901 53.2604 153.047ZM207.984 153.047C207.641 153.141 207.057 153.141 206.76 153.047C206.422 152.901 206.667 152.802 207.349 152.802C208.031 152.802 208.276 152.901 207.984 153.047ZM51.1146 153.385C51.0156 153.484 50.0885 153.677 49.0625 153.875C47.7448 154.12 47.2552 154.068 47.5 153.729C47.6458 153.437 48.5729 153.193 49.5521 153.193C50.526 153.193 51.2083 153.286 51.1146 153.385ZM208.13 154.411C209.984 154.802 212.083 155.146 212.865 155.146C213.594 155.146 214.182 155.338 214.182 155.63C214.182 155.875 213.693 156.12 213.057 156.12C211.594 156.12 204.469 154.266 203.443 153.63C202.859 153.239 202.953 153.193 203.734 153.437C204.323 153.583 206.276 154.021 208.13 154.411ZM212.474 153.729C212.719 154.068 212.229 154.12 210.911 153.875C208.422 153.437 208.276 153.193 210.422 153.193C211.401 153.193 212.328 153.437 212.474 153.729ZM43.6927 154.021C42.7187 154.12 41.1562 154.12 40.276 154.021C39.4479 153.922 40.276 153.828 42.1302 153.828C44.0365 153.828 44.7187 153.922 43.6927 154.021ZM55.4583 153.974C55.0156 154.364 48.1823 156.12 46.9167 156.12C45.1562 156.12 45.599 155.146 47.401 155.094C48.2344 155.094 50.1875 154.755 51.651 154.411C54.8229 153.677 55.7969 153.583 55.4583 153.974ZM219.406 154.021C218.427 154.12 216.865 154.12 215.99 154.021C215.156 153.922 215.99 153.828 217.844 153.828C219.745 153.828 220.427 153.922 219.406 154.021ZM44.3281 155.729C44.3281 156.219 42.375 156.167 41.1562 155.63C40.4219 155.338 40.7187 155.239 42.2292 155.292C43.401 155.338 44.3281 155.536 44.3281 155.729ZM218.818 155.63C217.599 156.167 215.646 156.219 215.646 155.729C215.646 155.536 216.573 155.338 217.745 155.292C219.255 155.239 219.552 155.338 218.818 155.63ZM53.8437 156.364C51.9427 157.875 46.2292 158.656 45.5469 157.583C45.3542 157.292 45.9896 157.094 47.1094 157.094C48.1354 157.094 50.0885 156.755 51.4062 156.411C54.5781 155.536 55.0156 155.536 53.8437 156.364ZM208.323 156.364C209.786 156.755 211.839 157.094 212.865 157.094C213.984 157.094 214.62 157.292 214.427 157.583C213.745 158.656 208.031 157.875 206.13 156.364C204.906 155.484 205.052 155.484 208.323 156.364ZM57.2604 157C56.9687 157.193 56.2396 157.828 55.5521 158.411C54.1406 159.583 52.1354 160.318 52.1354 159.635C52.1354 159.344 53.2604 158.562 54.6771 157.875C57.2604 156.609 58.0937 156.312 57.2604 157ZM207.25 158.854C207.885 159.292 208.276 159.729 208.13 159.88C207.641 160.364 205.641 159.489 203.932 158.021L202.224 156.51L204.177 157.338C205.25 157.781 206.667 158.463 207.25 158.854ZM207.839 167.443C207.786 167.786 207.104 167.198 206.224 166.125C205.396 165.052 203.396 162.755 201.786 161C200.172 159.245 200.906 159.828 203.344 162.318C205.833 164.807 207.839 167.104 207.839 167.443ZM57.7031 161.588C56.1406 163.297 54.2344 165.443 53.5052 166.37C52.7708 167.297 52.1875 167.786 52.1354 167.443C52.1354 166.859 59.8021 158.562 60.3385 158.562C60.4844 158.562 59.3125 159.927 57.7031 161.588ZM55.0156 161.828C53.7969 163.146 52.3333 164.807 51.7448 165.588C51.1146 166.417 50.6719 166.713 50.6719 166.271C50.6719 164.661 55.3594 159.682 57.0208 159.536C57.1146 159.536 56.2396 160.562 55.0156 161.828ZM207.688 163.391C208.568 164.516 209.302 165.833 209.302 166.224C209.302 166.713 208.911 166.469 208.229 165.588C207.641 164.807 206.177 163.099 204.958 161.781L202.714 159.391L204.422 160.318C205.349 160.854 206.812 162.219 207.688 163.391ZM123.547 173.693C121.594 177.891 120.13 180.672 117.099 186.088C115.88 188.187 111.536 194.729 110.271 196.292C101.24 207.516 93.4792 214.151 84.8385 218.203C81.276 219.864 79.375 220.401 75.4167 221.036C67.3646 222.302 59.5052 218.495 55.9427 211.568L54.9687 209.661L56.9687 211.224C62.875 215.911 72.5885 215.958 81.8125 211.37C95.625 204.536 109.193 189.016 119.151 168.76L123.156 160.708L124.422 164.854L125.641 169.052L123.547 173.693ZM131.599 173.104C129.891 177.693 129.891 177.693 128.036 172.323L126.911 169.104L128.13 165.88C128.818 164.125 129.5 162.318 129.646 161.781C129.792 161.146 130.375 162.125 131.5 164.953L133.161 169.005L131.599 173.104ZM140.87 168.906C153.12 193.557 169.812 210.297 185.969 214.25C187.286 214.542 190.365 214.687 193.047 214.594C198.172 214.396 200.224 213.667 203.495 210.932L205.104 209.562L203.885 211.76C201.198 216.693 196.417 220.057 190.609 221.036C187.922 221.521 186.703 221.474 183.333 220.792C173.229 218.739 163.177 212.104 153.901 201.318C152.583 199.755 151.172 198.146 150.781 197.755C147.219 194.042 134.625 171.786 134.625 169.25C134.625 168.422 136.625 161 136.87 161C136.917 161 138.724 164.562 140.87 168.906ZM56.4792 165.396C55.6042 166.469 54.8229 167.344 54.6771 167.344C54.4323 167.344 55.2604 166.172 56.724 164.516C58.3385 162.708 58.1406 163.297 56.4792 165.396ZM203.495 164.76C204.125 165.542 204.078 165.588 203.344 164.953C202.516 164.318 202.271 163.927 202.661 163.927C202.76 163.927 203.151 164.318 203.495 164.76ZM52.8229 170.812C52.1354 172.177 51.4531 173.203 51.3073 173.057C51.0625 172.812 53.5052 168.323 53.8958 168.323C53.9948 168.323 53.5521 169.443 52.8229 170.812ZM207.302 169.932C208.568 171.984 209.448 174.323 208.812 173.937C208.521 173.786 208.323 173.396 208.323 173.156C208.323 172.911 207.786 171.838 207.104 170.76C206.422 169.687 205.885 168.713 205.885 168.568C205.885 167.979 206.37 168.422 207.302 169.932ZM51.651 169.203C51.651 169.443 51.3073 170.031 50.8698 170.568C50.4792 171.057 50.1875 171.25 50.3333 171.005C50.4271 170.713 50.6719 170.13 50.8177 169.641C51.1615 168.812 51.651 168.516 51.651 169.203ZM209.495 170.76L209.839 171.984L209.104 170.76C208.276 169.396 208.078 168.323 208.766 169.052C209.01 169.349 209.349 170.078 209.495 170.76ZM55.0677 170.276C54.7708 170.812 54.4323 171.25 54.2865 171.25C54.1875 171.25 54.2865 170.812 54.5781 170.276C54.8698 169.739 55.2135 169.297 55.3594 169.297C55.4583 169.297 55.3594 169.739 55.0677 170.276ZM137.062 177.594C140.677 184.917 141.406 186.187 145.214 191.943C157.76 210.833 173.62 222.156 187.583 222.208C192.708 222.255 195.88 221.328 199.589 218.739L202.078 217.031L201.198 218.594C199.536 221.375 195.536 224.937 192.266 226.5C189.484 227.818 188.359 228.114 184.359 228.26C178.745 228.505 175.182 227.724 169.375 224.937C158.833 219.911 148.484 210.052 140.234 197.12C137.797 193.266 131.5 181.5 131.01 179.745C130.818 179.109 131.307 177.109 132.281 174.62C133.109 172.375 133.943 170.859 134.036 171.25C134.182 171.641 135.5 174.521 137.062 177.594ZM127.547 174.422C128.036 175.739 128.62 177.057 128.865 177.302C129.646 178.229 129.208 179.5 125.839 186.234C118.177 201.562 107.875 214.104 97.0417 221.281C88.9896 226.599 82.9844 228.552 75.5677 228.26C71.6146 228.114 70.4896 227.818 67.7552 226.552C64.1927 224.792 61.3646 222.354 59.0677 218.937L57.4583 216.641L60.1927 218.547C64.1927 221.328 67.1719 222.255 72.3906 222.208C89.7188 222.156 109.245 205.125 122.469 178.521C123.786 175.937 125.057 173.203 125.349 172.422C125.984 170.812 126.422 171.203 127.547 174.422ZM53.2604 173.448C52.8229 174.375 52.3802 175.057 52.2344 174.958C52.0417 174.713 53.5052 171.739 53.8437 171.739C53.9948 171.739 53.6979 172.521 53.2604 173.448ZM207.104 173.25C207.542 174.083 207.839 174.864 207.74 174.958C207.594 175.057 207.151 174.375 206.714 173.448C205.688 171.349 206.078 171.151 207.104 173.25ZM208.714 177.349C208.568 177.5 208.276 177.255 208.13 176.766C207.839 176.083 207.885 176.031 208.375 176.474C208.714 176.812 208.859 177.203 208.714 177.349ZM208.323 180.281C208.323 180.526 208.078 180.427 207.839 180.036C207.594 179.646 207.349 179.057 207.349 178.818C207.349 178.521 207.594 178.672 207.839 179.057C208.078 179.448 208.323 179.989 208.323 180.281ZM52.9687 187.943C52.8229 188.333 52.6719 188.187 52.6719 187.651C52.625 187.114 52.7708 186.823 52.9167 187.016C53.0625 187.161 53.1146 187.599 52.9687 187.943ZM53.4531 192.823C53.3073 193.213 53.1615 193.068 53.1615 192.531C53.1146 191.995 53.2604 191.703 53.4062 191.896C53.5521 192.042 53.6042 192.484 53.4531 192.823ZM206.714 193.312C206.568 193.651 206.469 193.411 206.469 192.724C206.469 192.042 206.568 191.797 206.714 192.094C206.813 192.432 206.813 193.021 206.714 193.312ZM52.9687 198.682C52.8229 199.021 52.724 198.776 52.724 198.094C52.724 197.411 52.8229 197.167 52.9687 197.458C53.0625 197.802 53.0625 198.385 52.9687 198.682ZM207.203 198.682C207.057 199.021 206.958 198.776 206.958 198.094C206.958 197.411 207.057 197.167 207.203 197.458C207.302 197.802 207.302 198.385 207.203 198.682Z" fill="#545454"/>
</g>
</svg>
